<?xml version="1.0" encoding="UTF-8" standalone="no"?>
<!-- Created with Inkscape (http://www.inkscape.org/) -->

<svg
   xmlns:osb="http://www.openswatchbook.org/uri/2009/osb"
   xmlns:dc="http://purl.org/dc/elements/1.1/"
   xmlns:cc="http://creativecommons.org/ns#"
   xmlns:rdf="http://www.w3.org/1999/02/22-rdf-syntax-ns#"
   xmlns:svg="http://www.w3.org/2000/svg"
   xmlns="http://www.w3.org/2000/svg"
   xmlns:sodipodi="http://sodipodi.sourceforge.net/DTD/sodipodi-0.dtd"
   xmlns:inkscape="http://www.inkscape.org/namespaces/inkscape"
   width="210mm"
   height="297mm"
   viewBox="0 0 210 297"
   version="1.1"
   id="svg8"
   inkscape:version="0.92.3 (2405546, 2018-03-11)"
   sodipodi:docname="rysunek2.svg">
  <sodipodi:namedview
     id="base"
     pagecolor="#ffffff"
     bordercolor="#666666"
     borderopacity="1.0"
     inkscape:pageopacity="0.0"
     inkscape:pageshadow="2"
     inkscape:zoom="0.60647144"
     inkscape:cx="-116.99874"
     inkscape:cy="646.83441"
     inkscape:document-units="mm"
     inkscape:current-layer="layer1"
     showgrid="false"
     inkscape:window-width="1366"
     inkscape:window-height="703"
     inkscape:window-x="0"
     inkscape:window-y="0"
     inkscape:window-maximized="1" />
  <defs
     id="defs2">
    <linearGradient
       osb:paint="solid"
       id="linearGradient2766">
      <stop
         id="stop2764"
         offset="0"
         style="stop-color:#000000;stop-opacity:1;" />
    </linearGradient>
    <style
       id="style2">.cls-1,.cls-2{fill:#fff;}.cls-2{opacity:0.25;}.cls-3{fill:#db1f26;}.cls-4{fill:#4d4d4d;}.cls-5{fill:#e6b35a;}</style>
    <filter
       id="filter951"
       inkscape:label="Diffuse Light"
       style="color-interpolation-filters:sRGB;">
      <feGaussianBlur
         id="feGaussianBlur941"
         result="blur"
         stdDeviation="6"
         in="SourceGraphic" />
      <feDiffuseLighting
         id="feDiffuseLighting945"
         result="diffuse"
         lighting-color="rgb(255,255,255)"
         surfaceScale="10"
         diffuseConstant="1">
        <feDistantLight
           id="feDistantLight943"
           azimuth="235"
           elevation="25" />
      </feDiffuseLighting>
      <feComposite
         id="feComposite947"
         result="composite1"
         k1="1"
         operator="arithmetic"
         in2="diffuse"
         in="diffuse" />
      <feComposite
         id="feComposite949"
         result="fbSourceGraphic"
         k3="1"
         operator="arithmetic"
         k1="1"
         in2="SourceGraphic"
         in="composite1" />
      <feColorMatrix
         id="feColorMatrix953"
         values="0 0 0 -1 0 0 0 0 -1 0 0 0 0 -1 0 0 0 0 1 0"
         in="fbSourceGraphic"
         result="fbSourceGraphicAlpha" />
      <feGaussianBlur
         result="blur"
         stdDeviation="6"
         in="fbSourceGraphic"
         id="feGaussianBlur955" />
      <feDiffuseLighting
         result="diffuse"
         lighting-color="rgb(255,255,255)"
         surfaceScale="10"
         diffuseConstant="1"
         id="feDiffuseLighting957">
        <feDistantLight
           azimuth="235"
           elevation="25"
           id="feDistantLight959" />
      </feDiffuseLighting>
      <feComposite
         result="composite1"
         k1="1"
         operator="arithmetic"
         in="diffuse"
         id="feComposite961"
         in2="diffuse" />
      <feComposite
         result="fbSourceGraphic"
         k3="1"
         operator="arithmetic"
         k1="1"
         in="composite1"
         id="feComposite963"
         in2="fbSourceGraphic" />
      <feColorMatrix
         id="feColorMatrix965"
         values="0 0 0 -1 0 0 0 0 -1 0 0 0 0 -1 0 0 0 0 1 0"
         in="fbSourceGraphic"
         result="fbSourceGraphicAlpha" />
      <feGaussianBlur
         result="blur"
         stdDeviation="6"
         in="fbSourceGraphic"
         id="feGaussianBlur967" />
      <feDiffuseLighting
         result="diffuse"
         lighting-color="rgb(255,255,255)"
         surfaceScale="10"
         diffuseConstant="1"
         id="feDiffuseLighting969">
        <feDistantLight
           azimuth="235"
           elevation="25"
           id="feDistantLight971" />
      </feDiffuseLighting>
      <feComposite
         result="composite1"
         k1="1"
         operator="arithmetic"
         in="diffuse"
         id="feComposite973"
         in2="diffuse" />
      <feComposite
         result="fbSourceGraphic"
         k3="1"
         operator="arithmetic"
         k1="1"
         in="composite1"
         id="feComposite975"
         in2="fbSourceGraphic" />
      <feColorMatrix
         id="feColorMatrix977"
         values="0 0 0 -1 0 0 0 0 -1 0 0 0 0 -1 0 0 0 0 1 0"
         in="fbSourceGraphic"
         result="fbSourceGraphicAlpha" />
      <feGaussianBlur
         result="blur"
         stdDeviation="6"
         in="fbSourceGraphic"
         id="feGaussianBlur979" />
      <feDiffuseLighting
         result="diffuse"
         lighting-color="rgb(255,255,255)"
         surfaceScale="10"
         diffuseConstant="1"
         id="feDiffuseLighting981">
        <feDistantLight
           azimuth="235"
           elevation="25"
           id="feDistantLight983" />
      </feDiffuseLighting>
      <feComposite
         result="composite1"
         k1="1"
         operator="arithmetic"
         in="diffuse"
         id="feComposite985"
         in2="diffuse" />
      <feComposite
         result="fbSourceGraphic"
         k3="1"
         operator="arithmetic"
         k1="1"
         in="composite1"
         id="feComposite987"
         in2="fbSourceGraphic" />
      <feColorMatrix
         id="feColorMatrix989"
         values="0 0 0 -1 0 0 0 0 -1 0 0 0 0 -1 0 0 0 0 1 0"
         in="fbSourceGraphic"
         result="fbSourceGraphicAlpha" />
      <feGaussianBlur
         result="blur"
         stdDeviation="6"
         in="fbSourceGraphic"
         id="feGaussianBlur991" />
      <feDiffuseLighting
         result="diffuse"
         lighting-color="rgb(255,255,255)"
         surfaceScale="10"
         diffuseConstant="1"
         id="feDiffuseLighting993">
        <feDistantLight
           azimuth="235"
           elevation="25"
           id="feDistantLight995" />
      </feDiffuseLighting>
      <feComposite
         result="composite1"
         k1="1"
         operator="arithmetic"
         in="diffuse"
         id="feComposite997"
         in2="diffuse" />
      <feComposite
         result="fbSourceGraphic"
         k3="1"
         operator="arithmetic"
         k1="1"
         in="composite1"
         id="feComposite999"
         in2="fbSourceGraphic" />
      <feColorMatrix
         id="feColorMatrix1001"
         values="0 0 0 -1 0 0 0 0 -1 0 0 0 0 -1 0 0 0 0 1 0"
         in="fbSourceGraphic"
         result="fbSourceGraphicAlpha" />
      <feGaussianBlur
         result="blur"
         stdDeviation="6"
         in="fbSourceGraphic"
         id="feGaussianBlur1003" />
      <feDiffuseLighting
         result="diffuse"
         lighting-color="rgb(255,255,255)"
         surfaceScale="10"
         diffuseConstant="1"
         id="feDiffuseLighting1005">
        <feDistantLight
           azimuth="235"
           elevation="25"
           id="feDistantLight1007" />
      </feDiffuseLighting>
      <feComposite
         result="composite1"
         k1="1"
         operator="arithmetic"
         in="diffuse"
         id="feComposite1009"
         in2="diffuse" />
      <feComposite
         result="fbSourceGraphic"
         k3="1"
         operator="arithmetic"
         k1="1"
         in="composite1"
         id="feComposite1011"
         in2="fbSourceGraphic" />
      <feColorMatrix
         id="feColorMatrix1013"
         values="0 0 0 -1 0 0 0 0 -1 0 0 0 0 -1 0 0 0 0 1 0"
         in="fbSourceGraphic"
         result="fbSourceGraphicAlpha" />
      <feGaussianBlur
         result="blur"
         stdDeviation="6"
         in="fbSourceGraphic"
         id="feGaussianBlur1015" />
      <feDiffuseLighting
         result="diffuse"
         lighting-color="rgb(255,255,255)"
         surfaceScale="10"
         diffuseConstant="1"
         id="feDiffuseLighting1017">
        <feDistantLight
           azimuth="235"
           elevation="25"
           id="feDistantLight1019" />
      </feDiffuseLighting>
      <feComposite
         result="composite1"
         k1="1"
         operator="arithmetic"
         in="diffuse"
         id="feComposite1021"
         in2="diffuse" />
      <feComposite
         result="fbSourceGraphic"
         k3="1"
         operator="arithmetic"
         k1="1"
         in="composite1"
         id="feComposite1023"
         in2="fbSourceGraphic" />
      <feColorMatrix
         id="feColorMatrix1025"
         values="0 0 0 -1 0 0 0 0 -1 0 0 0 0 -1 0 0 0 0 1 0"
         in="fbSourceGraphic"
         result="fbSourceGraphicAlpha" />
      <feGaussianBlur
         result="blur"
         stdDeviation="6"
         in="fbSourceGraphic"
         id="feGaussianBlur1027" />
      <feDiffuseLighting
         result="diffuse"
         lighting-color="rgb(255,255,255)"
         surfaceScale="10"
         diffuseConstant="1"
         id="feDiffuseLighting1029">
        <feDistantLight
           azimuth="235"
           elevation="25"
           id="feDistantLight1031" />
      </feDiffuseLighting>
      <feComposite
         result="composite1"
         k1="1"
         operator="arithmetic"
         in="diffuse"
         id="feComposite1033"
         in2="diffuse" />
      <feComposite
         result="fbSourceGraphic"
         k3="1"
         operator="arithmetic"
         k1="1"
         in="composite1"
         id="feComposite1035"
         in2="fbSourceGraphic" />
      <feColorMatrix
         id="feColorMatrix1037"
         values="0 0 0 -1 0 0 0 0 -1 0 0 0 0 -1 0 0 0 0 1 0"
         in="fbSourceGraphic"
         result="fbSourceGraphicAlpha" />
      <feGaussianBlur
         result="blur"
         stdDeviation="6"
         in="fbSourceGraphic"
         id="feGaussianBlur1039" />
      <feDiffuseLighting
         result="diffuse"
         lighting-color="rgb(255,255,255)"
         surfaceScale="10"
         diffuseConstant="1"
         id="feDiffuseLighting1041">
        <feDistantLight
           azimuth="235"
           elevation="25"
           id="feDistantLight1043" />
      </feDiffuseLighting>
      <feComposite
         result="composite1"
         k1="1"
         operator="arithmetic"
         in="diffuse"
         id="feComposite1045"
         in2="diffuse" />
      <feComposite
         result="composite2"
         k3="1"
         operator="arithmetic"
         k1="1"
         in="composite1"
         id="feComposite1047"
         in2="fbSourceGraphic" />
    </filter>
  </defs>
  <metadata
     id="metadata5">
    <rdf:RDF>
      <cc:Work
         rdf:about="">
        <dc:format>image/svg+xml</dc:format>
        <dc:type
           rdf:resource="http://purl.org/dc/dcmitype/StillImage" />
        <dc:title />
      </cc:Work>
    </rdf:RDF>
  </metadata>
  <g
     id="layer1"
     inkscape:groupmode="layer"
     inkscape:label="Layer 1">
    <g
       transform="matrix(0.26458333,0,0,0.26458333,-67.963143,-2.0388863)"
       id="g1069">
      <g
         id="flowRoot934"
         style="font-style:normal;font-variant:normal;font-weight:bold;font-stretch:normal;font-size:16px;line-height:1.25;font-family:Metropolis;-inkscape-font-specification:'Metropolis Bold';font-variant-ligatures:normal;font-variant-caps:normal;font-variant-numeric:normal;font-feature-settings:normal;text-align:center;letter-spacing:0px;word-spacing:0px;writing-mode:lr-tb;text-anchor:middle;fill:#000000;fill-opacity:1;stroke:none" />
      <g
         id="flowRoot942"
         style="font-style:normal;font-variant:normal;font-weight:bold;font-stretch:normal;font-size:16px;line-height:1.25;font-family:Metropolis;-inkscape-font-specification:'Metropolis Bold';font-variant-ligatures:normal;font-variant-caps:normal;font-variant-numeric:normal;font-feature-settings:normal;text-align:center;letter-spacing:0px;word-spacing:0px;writing-mode:lr-tb;text-anchor:middle;fill:#000000;fill-opacity:1;stroke:none" />
      <g
         id="flowRoot950"
         style="font-style:normal;font-variant:normal;font-weight:bold;font-stretch:normal;font-size:16px;line-height:1.25;font-family:Metropolis;-inkscape-font-specification:'Metropolis Bold';font-variant-ligatures:normal;font-variant-caps:normal;font-variant-numeric:normal;font-feature-settings:normal;text-align:center;letter-spacing:0px;word-spacing:0px;writing-mode:lr-tb;text-anchor:middle;fill:#000000;fill-opacity:1;stroke:none" />
    </g>
    <path
       inkscape:connector-curvature="0"
       d="M-181.34754576153554 107.32552470532642C-181.34754576153554 107.32552470532642 -181.345825244738 82.19725583954568 -181.345825244738 82.19725583954568C-181.34570610264151 80.45717713847915 -182.55455182048317 78.35833043230205 -184.05624248793666 77.49132916966019C-184.05624248793666 77.49132916966019 -205.74138640931707 64.97140907700263 -205.74138640931707 64.97140907700263C-207.24308428702608 64.10440365151895 -208.45218119590245 64.80725486305637 -208.4523532910222 66.54730787550048C-208.4523532910222 66.54730787550048 -208.4548384961094 91.67520577707762 -208.4548384961094 91.67520577707762C-208.45501060161143 93.41536376466792 -207.24614816207333 95.51430264883324 -205.74439732950952 96.38133376369227C-205.74439732950952 96.38133376369227 -184.0584887197671 108.90162482058845 -184.0584887197671 108.90162482058845C-182.55674509796737 109.76865177233555 -181.3476649108197 109.06570838279418 -181.34754576153554 107.32552470532642C-181.34754576153554 107.32552470532642 -181.34754576153554 107.32552470532642 -181.34754576153554 107.32552470532642M-151.52970359534257 124.5407716952225C-151.52970359534257 124.5407716952225 -151.52882422563295 99.4120947741411 -151.52882422563295 99.4120947741411C-151.52876333116745 97.67198781595859 -152.73765872217686 95.57311675585737 -154.23934011769504 94.70612084636832C-154.23934011769504 94.70612084636832 -175.92433990274995 82.18628397083323 -175.92433990274995 82.18628397083323C-177.42603875336496 81.3192779836422 -178.63507105955674 82.02216216863746 -178.63518490639163 83.762243438545C-178.63518490639163 83.762243438545 -178.63682895494796 108.8905494004392 -178.63682895494796 108.8905494004392C-178.63694280865104 110.63073564687352 -177.4280511834375 112.72968705599428 -175.92629937826035 113.59671873238852C-175.92629937826035 113.59671873238852 -154.2405349146477 126.11692656697055 -154.2405349146477 126.11692656697055C-152.73880056543715 126.98394816521746 -151.52976449348176 126.28098363118693 -151.52970359534257 124.5407716952225C-151.52970359534257 124.5407716952225 -151.52970359534257 124.5407716952225 -151.52970359534257 124.5407716952225M-121.71205271154471 141.75590824876775C-121.71205271154471 141.75590824876775 -121.71201447833354 116.62682327800196 -121.71201447833354 116.62682327800196C-121.71201183076569 114.88668806309224 -122.92093742918534 112.78780388759637 -124.42261160181008 111.9208121482456C-124.42261160181008 111.9208121482456 -146.10748774154948 99.4010466593462 -146.10748774154948 99.4010466593462C-147.60916707533713 98.53405194019754 -148.81814502446704 99.2369631833661 -148.81820062373635 100.97707271035492C-148.81820062373635 100.97707271035492 -148.81900352614903 126.10578672704808 -148.81900352614903 126.10578672704808C-148.81905912877252 127.84600123194431 -147.61012807305775 129.9449710808651 -146.1083957857232 130.81199148869436C-146.1083957857232 130.81199148869436 -124.42275497650763 143.3321279317996 -124.42275497650763 143.3321279317996C-122.92102785077223 144.19914535959583 -121.7120553592723 143.4961484428399 -121.71205271154471 141.75590824876775C-121.71205271154471 141.75590824876775 -121.71205271154471 141.75590824876775 -121.71205271154471 141.75590824876775M-181.34991163165535 141.87922424389905C-181.34991163165535 141.87922424389905 -181.34819098056454 116.74899401516002 -181.34819098056454 116.74899401516002C-181.34807182922495 115.00878031812492 -182.55696443480366 112.90981405541282 -184.05871335225743 112.04278453466777C-184.05871335225743 112.04278453466777 -205.74469843400456 99.52245638008414 -205.74469843400456 99.52245638008414C-207.2464545622733 98.65542269620006 -208.45559837598967 99.35834796412229 -208.4557704844607 101.09853597092088C-208.4557704844607 101.09853597092088 -208.45825588352875 126.22839521197272 -208.45825588352875 126.22839521197272C-208.45842800238322 127.96868820618047 -207.24951867502142 130.06775852957105 -205.74770958778953 130.93481790444457C-205.74770958778953 130.93481790444457 -184.0609597583541 143.45551704657515 -184.0609597583541 143.45551704657515C-182.55915788244576 144.32257225803957 -181.35003079018347 143.6195429295984 -181.34991163165535 141.87922424389905C-181.34991163165535 141.87922424389905 -181.34991163165535 141.87922424389905 -181.34991163165535 141.87922424389905M-151.53091281022665 159.0950323405202C-151.53091281022665 159.0950323405202 -151.53003337187886 133.9643940306491 -151.53003337187886 133.9643940306491C-151.52997247268914 132.22415207472258 -152.7389147544944 130.12516145696472 -154.2406543992936 129.2581372897546C-154.2406543992936 129.2581372897546 -175.9264953339305 116.7378923580043 -175.9264953339305 116.7378923580043C-177.42825243478327 115.87085811260224 -178.637331641598 116.57381635571929 -178.63744549726516 118.31403262175674C-178.63744549726516 118.31403262175674 -178.63908967414608 143.44429994895756 -178.63908967414608 143.44429994895756C-178.63920353668223 145.18462120378493 -177.43026502098323 147.28370405305992 -175.92845496146 148.15076398927928C-175.92845496146 148.15076398927928 -154.24184928894024 160.67137990338426 -154.24184928894024 160.67137990338426C-152.7400566863405 161.53842976096632 -151.53097371309048 160.8353792864917 -151.53091281022665 159.0950323405202C-151.53091281022665 159.0950323405202 -151.53091281022665 159.0950323405202 -151.53091281022665 159.0950323405202M-121.71210528575497 176.3107299930676C-121.71210528575497 176.3107299930676 -121.71206704955956 151.17968360768128 -121.71206704955956 151.17968360768128C-121.71206440178634 149.4394133932522 -122.92103689330557 147.34040965934432 -124.42276931457145 146.47338966261603C-124.42276931457145 146.47338966261603 -146.10848659390305 133.95321612282672 -146.10848659390305 133.95321612282672C-147.61022417681173 133.08619314604192 -148.81924902274497 133.78917844887638 -148.81930462632764 135.52942297377055C-148.81930462632764 135.52942297377055 -148.8201075914099 160.66009838160167 -148.8201075914099 160.66009838160167C-148.82016319834722 162.4004478966665 -147.6111852490878 164.49954918686325 -146.109394708524 165.36659785394264C-146.109394708524 165.36659785394264 -124.42291270039222 177.8871423712451 -124.42291270039222 177.8871423712451C-122.9211273219075 178.7541880580329 -121.71210793368797 178.05110519892233 -121.712105285755 176.3107299930676C-121.712105285755 176.3107299930676 -121.71210528575497 176.3107299930676 -121.71210528575497 176.3107299930676M-181.35227768451625 176.43559272900686C-181.35227768451625 176.43559272900686 -181.35055690074248 151.3034246555297 -181.35055690074248 151.3034246555297C-181.35043773934578 149.56306407368191 -182.55937723546984 147.4639663691575 -184.06118440742304 146.59690858854339C-184.06118440742304 146.59690858854339 -205.74801071450716 134.07617234653466 -205.74801071450716 134.07617234653466C-207.24982509783476 133.2091104024844 -208.4590158211887 133.9121216090501 -208.45918794418674 135.65245649887197C-208.45918794418674 135.65245649887197 -208.46167353490966 160.7842535615268 -208.46167353490966 160.7842535615268C-208.4618456682925 162.52469345169249 -207.25288944946956 164.62389522838703 -205.75102210304996 165.49098286505074C-205.75102210304996 165.49098286505074 -184.06343098865534 178.01209011805707 -184.06343098865534 178.01209011805707C-182.56157085411874 178.87917359101442 -181.3523968531024 178.17605831245382 -181.35227768451625 176.43559272900686C-181.35227768451625 176.43559272900686 -181.35227768451625 176.43559272900686 -181.35227768451625 176.43559272900686M-151.53212211851084 193.65196196741599C-151.53212211851084 193.65196196741599 -151.53124261234794 168.51938578735871 -151.53124261234794 168.51938578735871C-151.53118170801798 166.77899694465117 -152.74017088382521 164.67987488376644 -154.24196878240448 163.8128224570694C-154.24196878240448 163.8128224570694 -175.9286509315923 151.29216944360553 -175.9286509315923 151.29216944360553C-177.430466287182 150.42510693822666 -178.63959239901925 151.12815112191709 -178.63970626429654 152.86851427294624C-178.63970626429654 152.86851427294624 -178.64135056796331 178.00071944719866 -178.64135056796331 178.00071944719866C-178.64146444011047 179.7411875999525 -177.43247903028825 181.8404019034605 -175.9306107118993 182.70749010128063C-175.9306107118993 182.70749010128063 -154.24316376520747 195.22851412054936 -154.24316376520747 195.22851412054936C-152.74131290469893 196.09559223924217 -151.53218302651538 195.39245581310365 -151.53212211851084 193.65196196741599C-151.53212211851084 193.65196196741599 -151.53212211851084 193.65196196741599 -151.53212211851084 193.65196196741599M-121.7121578640261 210.8682207540278C-121.7121578640261 210.8682207540278 -121.71211962488219 185.73523647300775 -121.71211962488219 185.73523647300775C-121.71211697688548 183.9948193698293 -122.92113636510818 181.89568419184633 -124.42292703951419 181.02863593597476C-124.42292703951419 181.02863593597476 -146.10948552340577 168.50805431979765 -146.10948552340577 168.50805431979765C-147.6112813599345 167.641003083611 -148.82035310667277 168.34407432875594 -148.82040871494874 170.08446574061017C-148.82040871494874 170.08446574061017 -148.82121174194913 195.21707902094093 -148.82121174194913 195.21707902094093C-148.82126735358008 196.9575754359007 -147.612242507138 199.0568081814523 -146.11039370882543 199.9238851095575C-146.11039370882543 199.9238851095575 -124.42307043651363 212.44483772669733 -124.42307043651363 212.44483772669733C-122.92122680076011 213.31191167425223 -121.7121605121826 212.60874286156712 -121.7121578640261 210.8682207540278C-121.7121578640261 210.8682207540278 -121.7121578640261 210.8682207540278 -121.7121578640261 210.8682207540278M-121.7121578640261 210.8682207540278C-121.7121578640261 210.8682207540278 -121.71211962488219 185.73523647300775 -121.71211962488219 185.73523647300775C-121.71211697688548 183.9948193698293 -122.92113636510818 181.89568419184633 -124.42292703951419 181.02863593597476C-124.42292703951419 181.02863593597476 -146.10948552340577 168.50805431979765 -146.10948552340577 168.50805431979765C-147.6112813599345 167.641003083611 -148.82035310667277 168.34407432875594 -148.82040871494874 170.08446574061017C-148.82040871494874 170.08446574061017 -148.82121174194913 195.21707902094093 -148.82121174194913 195.21707902094093C-148.82126735358008 196.9575754359007 -147.612242507138 199.0568081814523 -146.11039370882543 199.9238851095575C-146.11039370882543 199.9238851095575 -124.42307043651363 212.44483772669733 -124.42307043651363 212.44483772669733C-122.92122680076011 213.31191167425223 -121.7121605121826 212.60874286156712 -121.7121578640261 210.8682207540278C-121.7121578640261 210.8682207540278 -121.7121578640261 210.8682207540278 -121.7121578640261 210.8682207540278"
       style="fill:#57c526;fill-opacity:1;stroke:#000000;stroke-width:2.64583325;stroke-miterlimit:4;stroke-dasharray:none"
       id="use883" />
    <path
       d="M-56.5870438269255 146.6423658315121C-56.5870438269255 146.6423658315121 -34.9489602573589 134.1770726043534 -34.9489602573589 134.1770726043534C-33.4518396591278 133.31460956813441 -32.24669949709231 134.01669653749505 -32.24669949709231 135.75117110185425C-32.24669949709231 135.75117110185425 -32.24669949709231 160.79775579846032 -32.24669949709231 160.79775579846032C-32.24669949709231 162.5322303628195 -33.4518396591278 164.62429054673925 -34.9489602573589 165.48854767185756C-34.9489602573589 165.48854767185756 -56.5870438269255 177.97977110502694 -56.5870438269255 177.97977110502694C-58.086806802453744 178.8455536205574 -59.294321878358375 178.14482437839766 -59.294321878358375 176.40855414789812C-59.294321878358375 176.40855414789812 -59.294321878358375 151.33603923300257 -59.294321878358375 151.33603923300257C-59.294321878358375 149.599769002503 -58.08680680245369 147.50635109162488 -56.5870438269255 146.6423658315121C-56.5870438269255 146.6423658315121 -56.5870438269255 146.6423658315121 -56.5870438269255 146.6423658315121M-56.5870438269255 112.17121173980362C-56.5870438269255 112.17121173980362 -34.9489602573589 99.73444174611693 -34.9489602573589 99.73444174611693C-33.4518396591278 98.87395220816187 -32.24669949709231 99.5776396214027 -32.24669949709231 101.31211418576181C-32.24669949709231 101.31211418576181 -32.24669949709231 126.358698882368 -32.24669949709231 126.358698882368C-32.24669949709231 128.09318527976296 -33.4518396591278 130.18364502034845 -34.9489602573589 131.04592864788097C-34.9489602573589 131.04592864788097 -56.5870438269255 143.50862885737868 -56.5870438269255 143.50862885737868C-58.086806802453744 144.37243439215354 -59.294321878358375 143.67012525438096 -59.294321878358375 141.93384317859508C-59.294321878358375 141.93384317859508 -59.294321878358375 116.86132826369946 -59.294321878358375 116.86132826369946C-59.294321878358375 115.12505803319998 -58.08680680245369 113.03322001848152 -56.5870438269255 112.17121173980362C-56.5870438269255 112.17121173980362 -56.5870438269255 112.17121173980362 -56.5870438269255 112.17121173980362M-56.5870438269255 77.70006593893726C-56.5870438269255 77.70006593893726 -34.9489602573589 65.2918191718623 -34.9489602573589 65.2918191718623C-33.4518396591278 64.43330313169649 -32.24669949709231 65.13856850566722 -32.24669949709231 66.87304543663356C-32.24669949709231 66.87304543663356 -32.24669949709231 91.91963841636478 -32.24669949709231 91.91963841636478C-32.24669949709231 93.65411416402755 -33.4518396591278 95.74298766037589 -34.9489602573589 96.60329778964446C-34.9489602573589 96.60329778964446 -56.5870438269255 109.0374747656702 -56.5870438269255 109.0374747656702C-58.086806802453744 109.8993033190101 -59.294321878358375 109.19540007073427 -59.294321878358375 107.45912865570608C-59.294321878358375 107.45912865570608 -59.294321878358375 82.38660544911004 -59.294321878358375 82.38660544911004C-59.294321878358375 80.65033284955321 -58.08680680245369 78.56009723665575 -56.5870438269255 77.70006593893726C-56.5870438269255 77.70006593893726 -56.5870438269255 77.70006593893726 -56.5870438269255 77.70006593893726M-86.39800600278684 163.81590080336588C-86.39800600278684 163.81590080336588 -64.71057023834621 151.32217670438206 -64.71057023834621 151.32217670438206C-63.21004746296096 150.45775373785304 -62.00217078035637 151.15985458301424 -62.00217078035637 152.89630458504848C-62.00217078035637 152.89630458504848 -62.00217078035637 177.97141548091926 -62.00217078035637 177.97141548091926C-62.00217078035637 179.70786548295348 -63.210047462961015 181.80309575161297 -64.71057023834621 182.66931688407308C-64.71057023834621 182.66931688407308 -86.39800600278684 195.18903033074602 -86.39800600278684 195.18903033074602C-87.90119044807527 196.05678799084532 -89.11147067630877 195.35606137078173 -89.11147067630877 193.61781160789513C-89.11147067630877 193.61781160789513 -89.11147067630877 168.51671136427072 -89.11147067630877 168.51671136427072C-89.11147067630877 166.77846160138404 -87.90119044807527 164.68185710789635 -86.39800600278684 163.81590080336588C-86.39800600278684 163.81590080336588 -86.39800600278684 163.81590080336588 -86.39800600278684 163.81590080336588M-86.39800600278684 129.30545002295418C-86.39800600278684 129.30545002295418 -64.71057023834621 116.84031421330428 -64.71057023834621 116.84031421330428C-63.21004746296096 115.97786922977524 -62.00217078035637 116.68157413956376 -62.00217078035637 118.41802414159805C-62.00217078035637 118.41802414159805 -62.00217078035637 143.4931350374688 -62.00217078035637 143.4931350374688C-62.00217078035637 145.2295968860159 -63.210047462961015 147.32322309059506 -64.71057023834621 148.1874662407348C-64.71057023834621 148.1874662407348 -86.39800600278684 160.67859140789656 -86.39800600278684 160.67859140789656C-87.90119044807527 161.54436757707444 -89.11147067630877 160.84205742989167 -89.11147067630877 159.1037958082137C-89.11147067630877 159.1037958082137 -89.11147067630877 134.00269556458935 -89.11147067630877 134.00269556458935C-89.11147067630877 132.26444580170266 -87.90119044807527 130.1694248358823 -86.39800600278684 129.30545002295418C-86.39800600278684 129.30545002295418 -86.39800600278684 129.30545002295418 -86.39800600278684 129.30545002295418M-86.39800600278684 94.79500754283606C-86.39800600278684 94.79500754283606 -64.71057023834621 82.35846001564416 -64.71057023834621 82.35846001564416C-63.21004746296096 81.49799301463933 -62.00217078035637 82.20327948029794 -62.00217078035637 83.93973185163479C-62.00217078035637 83.93973185163479 -62.00217078035637 109.01485104006446 -62.00217078035637 109.01485104006446C-62.00217078035637 110.75130222675003 -63.210047462961015 112.84333858251726 -64.71057023834621 113.70560374965704C-64.71057023834621 113.70560374965704 -86.39800600278684 126.16814062748486 -86.39800600278684 126.16814062748486C-87.90119044807527 127.03193530506033 -89.11147067630877 126.32802739966073 -89.11147067630877 124.58977645089499C-89.11147067630877 124.58977645089499 -89.11147067630877 99.48866790611665 -89.11147067630877 99.48866790611665C-89.11147067630877 97.75041577147178 -87.90119044807527 95.65700086463838 -86.39800600278684 94.79500754283606C-86.39800600278684 94.79500754283606 -86.39800600278684 94.79500754283606 -86.39800600278684 94.79500754283606M-116.27701400532874 181.0286356969563C-116.27701400532874 181.0286356969563 -94.54006729368334 168.5063892719135 -94.54006729368334 168.5063892719135C-93.0361204466822 167.63999376208676 -91.82548763011584 168.34210081026802 -91.82548763011584 170.08053075418053C-91.82548763011584 170.08053075418053 -91.82548763011584 195.18423289201448 -91.82548763011584 195.18423289201448C-91.82548763011584 196.92266283592699 -93.03612044668226 199.02107813789416 -94.54006729368334 199.88927591692124C-94.54006729368334 199.88927591692124 -116.27701400532874 212.43757102157392 -116.27701400532874 212.43757102157392C-117.78363164205209 213.30731059292552 -118.99666594784773 212.60657656482647 -118.99666594784773 210.86634275201146C-118.99666594784773 210.86634275201146 -118.99666594784773 185.73659194435257 -118.99666594784773 185.73659194435257C-118.99666594784773 183.99635813153762 -117.78363164205203 181.89656979854087 -116.27701400532874 181.0286356969563C-116.27701400532874 181.0286356969563 -116.27701400532874 181.0286356969563 -116.27701400532874 181.0286356969563M-116.27701400532874 146.4787985301103C-116.27701400532874 146.4787985301103 -94.54006729368334 133.98520565953 -94.54006729368334 133.98520565953C-93.0361204466822 133.1207926463005 -91.82548763011584 133.8245074057413 -91.82548763011584 135.56293734965385C-91.82548763011584 135.56293734965385 -91.82548763011584 160.66663948748774 -91.82548763011584 160.66663948748774C-91.82548763011584 162.40508129142083 -93.03612044668226 164.50188888267667 -94.54006729368334 165.36810416578777C-94.54006729368334 165.36810416578777 -116.27701400532874 177.88774572582307 -116.27701400532874 177.88774572582307C-117.78363164205209 178.7554992806358 -118.99666594784773 178.05317810854066 -118.99666594784773 176.31293242339876C-118.99666594784773 176.31293242339876 -118.99666594784773 151.18318161573987 -118.99666594784773 151.18318161573987C-118.99666594784773 149.44294780292486 -117.78363164205203 147.34474661447356 -116.27701400532874 146.4787985301103C-116.27701400532874 146.4787985301103 -116.27701400532874 146.4787985301103 -116.27701400532874 146.4787985301103M-116.27701400532874 111.9289696730309C-116.27701400532874 111.9289696730309 -94.54006729368334 99.46403035002157 -94.54006729368334 99.46403035002157C-93.0361204466822 98.60159983291234 -91.82548763011584 99.30689976919 -91.82548763011584 101.04533208510665C-91.82548763011584 101.04533208510665 -91.82548763011584 126.14904252495485 -91.82548763011584 126.14904252495485C-91.82548763011584 127.88747365486947 -93.03612044668226 129.9826877668904 -94.54006729368334 130.84692055340423C-94.54006729368334 130.84692055340423 -116.27701400532874 143.3379085589771 -116.27701400532874 143.3379085589771C-117.78363164205209 144.2036760965685 -118.99666594784773 143.4997535331356 -118.99666594784773 141.75951853308794C-118.99666594784773 141.75951853308794 -118.99666594784773 116.62975941480012 -118.99666594784773 116.62975941480012C-118.99666594784773 114.88952322751977 -117.78363164205203 112.79293174065053 -116.27701400532874 111.9289696730309C-116.27701400532874 111.9289696730309 -116.27701400532874 111.9289696730309 -116.27701400532874 111.9289696730309M-116.27701400532874 111.9289696730309C-116.27701400532874 111.9289696730309 -94.54006729368334 99.46403035002157 -94.54006729368334 99.46403035002157C-93.0361204466822 98.60159983291234 -91.82548763011584 99.30689976919 -91.82548763011584 101.04533208510665C-91.82548763011584 101.04533208510665 -91.82548763011584 126.14904252495485 -91.82548763011584 126.14904252495485C-91.82548763011584 127.88747365486947 -93.03612044668226 129.9826877668904 -94.54006729368334 130.84692055340423C-94.54006729368334 130.84692055340423 -116.27701400532874 143.3379085589771 -116.27701400532874 143.3379085589771C-117.78363164205209 144.2036760965685 -118.99666594784773 143.4997535331356 -118.99666594784773 141.75951853308794C-118.99666594784773 141.75951853308794 -118.99666594784773 116.62975941480012 -118.99666594784773 116.62975941480012C-118.99666594784773 114.88952322751977 -117.78363164205203 112.79293174065053 -116.27701400532874 111.9289696730309C-116.27701400532874 111.9289696730309 -116.27701400532874 111.9289696730309 -116.27701400532874 111.9289696730309"
       style="fill:#cec526;fill-opacity:1;stroke:#000000;stroke-width:2.64583325;stroke-miterlimit:4;stroke-dasharray:none"
       id="use883-0"
       inkscape:connector-curvature="0" />
    <path
       d="m 119.9147,111.05432 h 21.16667 c 1.46579,0 2.64584,1.18004 2.64584,2.64583 v 21.16666 c 0,1.46579 -1.18005,2.64584 -2.64584,2.64584 H 119.9147 c -1.46579,0 -2.64583,-1.18005 -2.64583,-2.64584 v -21.16666 c 0,-1.46579 1.18004,-2.64583 2.64583,-2.64583 z m 0,-29.10416 h 21.16667 c 1.46579,0 2.64584,1.18004 2.64584,2.64583 v 21.16666 c 0,1.46579 -1.18005,2.64584 -2.64584,2.64584 H 119.9147 c -1.46579,0 -2.64583,-1.18005 -2.64583,-2.64584 V 84.59599 c 0,-1.46579 1.18004,-2.64583 2.64583,-2.64583 z m 0,-29.10417 h 21.16667 c 1.46579,0 2.64584,1.18004 2.64584,2.64584 v 21.16666 c 0,1.46579 -1.18005,2.64584 -2.64584,2.64584 H 119.9147 c -1.46579,0 -2.64583,-1.18005 -2.64583,-2.64584 V 55.49183 c 0,-1.4658 1.18004,-2.64584 2.64583,-2.64584 z M 90.810541,111.05432 H 111.9772 c 1.46579,0 2.64584,1.18004 2.64584,2.64583 v 21.16666 c 0,1.46579 -1.18005,2.64584 -2.64584,2.64584 H 90.810541 c -1.46581,0 -2.64584,-1.18005 -2.64584,-2.64584 v -21.16666 c 0,-1.46579 1.18003,-2.64583 2.64584,-2.64583 z m 0,-29.10416 H 111.9772 c 1.46579,0 2.64584,1.18004 2.64584,2.64583 v 21.16666 c 0,1.46579 -1.18005,2.64584 -2.64584,2.64584 H 90.810541 c -1.46581,0 -2.64584,-1.18005 -2.64584,-2.64584 V 84.59599 c 0,-1.46579 1.18003,-2.64583 2.64584,-2.64583 z m 0,-29.10417 H 111.9772 c 1.46579,0 2.64584,1.18004 2.64584,2.64584 v 21.16666 c 0,1.46579 -1.18005,2.64584 -2.64584,2.64584 H 90.810541 c -1.46581,0 -2.64584,-1.18005 -2.64584,-2.64584 V 55.49183 c 0,-1.4658 1.18003,-2.64584 2.64584,-2.64584 z m -29.10418,58.20833 h 21.16667 c 1.46579,0 2.64583,1.18004 2.64583,2.64583 v 21.16666 c 0,1.46579 -1.18004,2.64584 -2.64583,2.64584 h -21.16667 c -1.46579,0 -2.64583,-1.18005 -2.64583,-2.64584 v -21.16666 c 0,-1.46579 1.18004,-2.64583 2.64583,-2.64583 z m 0,-29.10416 h 21.16667 c 1.46579,0 2.64583,1.18004 2.64583,2.64583 v 21.16666 c 0,1.46579 -1.18004,2.64584 -2.64583,2.64584 h -21.16667 c -1.46579,0 -2.64583,-1.18005 -2.64583,-2.64584 V 84.59599 c 0,-1.46579 1.18004,-2.64583 2.64583,-2.64583 z m 0,-29.10417 h 21.16667 c 1.46579,0 2.64583,1.18004 2.64583,2.64584 v 21.16666 c 0,1.46579 -1.18004,2.64584 -2.64583,2.64584 h -21.16667 c -1.46579,0 -2.64583,-1.18005 -2.64583,-2.64584 V 55.49183 c 0,-1.4658 1.18004,-2.64584 2.64583,-2.64584 z m 0,0 h 21.16667 c 1.46579,0 2.64583,1.18004 2.64583,2.64584 v 21.16666 c 0,1.46579 -1.18004,2.64584 -2.64583,2.64584 h -21.16667 c -1.46579,0 -2.64583,-1.18005 -2.64583,-2.64584 V 55.49183 c 0,-1.4658 1.18004,-2.64584 2.64583,-2.64584 z"
       style="fill:#da3326;fill-opacity:1;stroke:#000000;stroke-width:2.64583325;stroke-miterlimit:4;stroke-dasharray:none"
       id="use883-3"
       inkscape:connector-curvature="0" />
    <path
       sodipodi:nodetypes="ccccccccccccccccccccccccccccccccccccccccccsscccccccccccc"
       inkscape:connector-curvature="0"
       d="m -209.81762,61.402221 88.64213,51.183149 90.279696,52.1287 m -89.460916,51.64932 V 9.760847 m 66.698961,151.142913 c 0.07673,-0.0767 0.161396,-0.15611 0.248708,-0.23548 h -0.06879 c -0.05027,0.0794 -0.111125,0.15875 -0.179918,0.23548 z m 2.910417,-84.738109 -0.132292,0.111125 -0.0291,-0.03439 0.134937,-0.10848 z m -24.532166,-19.920478 -0.296334,-0.05821 0.02646,-0.07408 0.264584,0.140229 z m 37.160728,3.561291 -0.0979,-0.203729 0.05556,-0.01588 0.03969,0.22225 0.0026,-0.0026 z m -19.486562,40.819916 0.402166,0.22754 z m -21.489458,-51.244499 -0.283104,0.423333 c 0.01829,-0.180921 0.12819,-0.33978 0.291042,-0.420687 z m 27.984979,27.106562 -0.314855,0.288396 -0.03439,-0.03175 0.293687,-0.309563 z m -28.503562,19.105565 0.07937,-1.833565 h 0.06879 v 0.574146 c 0,0.193146 0,0.433916 -0.02381,0.653521 -0.02381,0.219604 -0.03969,0.404808 -0.05821,0.608538 z M -209.81763,164.71408 V 61.402222 l 13.22917,-7.641167 76.23175,-44.000208 v 0 l 75.993625,43.875854 13.467292,7.765521 V 164.71408 l -89.460917,51.64931 z M -30.895794,61.402221 -209.81762,164.71407 l 89.46091,51.64932"
       style="fill:none;stroke:#000000;stroke-width:0.26458332px;stroke-linecap:butt;stroke-linejoin:miter;stroke-opacity:1;filter:url(#filter951)"
       id="path1094" />
    <path
       inkscape:connector-curvature="0"
       id="path1294"
       d="m -209.81762,164.71407 89.46091,51.64932 0,-103.66563 -89.4505,-51.64427 z"
       style="stroke:#000000;stroke-width:0.26458332px;stroke-linecap:butt;stroke-linejoin:miter;stroke-opacity:1;fill-opacity:1;fill-rule:nonzero;fill:none" />
    <path
       inkscape:connector-curvature="0"
       id="path2916"
       d="M -120.35671,216.36339 V 112.69776 L -30.895792,61.402221 V 164.71407 Z"
       style="fill:none;stroke:#000000;stroke-width:0.26458332px;stroke-linecap:butt;stroke-linejoin:miter;stroke-opacity:1;opacity:0.99" />
    <path
       d="M-155.59529688318065 62.96169325711306C-155.59529688318065 62.96169325711306 -177.2342647919196 75.4260632382632 -177.2342647919196 75.4260632382632C-178.73145765648428 76.28846877792554 -181.14726003547625 76.28848042263989 -182.6511784244926 75.42606884859089C-182.6511784244926 75.42606884859089 -204.38719722555663 62.96169955522494 -204.38719722555663 62.96169955522494C-205.89372572829336 62.097791229557984 -205.90149424526422 60.706589196595665 -204.4043095415787 59.84242662888462C-204.4043095415787 59.84242662888462 -182.7654403978704 47.35265120200582 -182.7654403978704 47.35265120200582C-181.26564439350818 46.48698141324695 -178.84512751508584 46.48698745063477 -177.33859083169253 47.35265740111386C-177.33859083169253 47.35265740111386 -155.60247327384147 59.842432138978836 -155.60247327384147 59.842432138978836C-154.0985493851636 60.70660075338234 -154.09549536321694 62.09778509282534 -155.59529688318065 62.96169325711306C-155.59529688318065 62.96169325711306 -155.59529688318065 62.96169325711306 -155.59529688318065 62.96169325711306M-125.77195784283037 80.09497608474574C-125.77195784283037 80.09497608474574 -147.41098228744804 92.53148950202947 -147.41098228744804 92.53148950202947C-148.9081805207025 93.3919684928388 -151.32130358474834 93.39196837653903 -152.82185208706372 92.53148924065648C-152.82185208706372 92.53148924065648 -174.5092878861355 80.09497953297425 -174.5092878861355 80.09497953297425C-176.0124479815599 79.23300279712862 -176.01749708715758 77.84491153947818 -174.5203035786773 76.98268140760382C-174.5203035786773 76.98268140760382 -152.8813282797069 64.520847703425 -152.8813282797069 64.520847703425C-151.38152638035865 63.657115405538455 -148.96371985425057 63.65712142423124 -147.46055502327155 64.52085387704122C-147.46055502327155 64.52085387704122 -125.7730700867693 76.9826838596415 -125.7730700867693 76.9826838596415C-124.27251951201609 77.84491413657854 -124.27215386404593 79.23299950381497 -125.7719578428304 80.09497608474574C-125.7719578428304 80.09497608474574 -125.77195784283037 80.09497608474574 -125.77195784283037 80.09497608474574M-96.01527113671139 97.18996765022423C-96.01527113671139 97.18996765022423 -117.65429788404627 109.5987177938929 -117.65429788404627 109.5987177938929C-119.15149773036337 110.45727668496576 -121.5619167754583 110.45728243105933 -123.05912710946232 109.5987175446526C-123.05912710946232 109.5987175446526 -144.69814771359003 97.18997119486568 -144.69814771359003 97.18997119486568C-146.19794045403978 96.32992544538557 -146.20029250978268 94.94492867263126 -144.7030939750744 94.08462450153453C-144.7030939750744 94.08462450153453 -123.06406708555369 81.65063885436327 -123.06406708555369 81.65063885436327C-121.56426306984943 80.78883754970903 -119.14915059996392 80.78884942953974 -117.64935654605026 81.6506450025861C-117.64935654605026 81.6506450025861 -96.01033609226529 94.08462684393876 -96.01033609226529 94.08462684393876C-94.5131270901194 94.9449370222646 -94.51546845475612 96.32991618106657 -96.01527113671139 97.18996765022423C-96.01527113671139 97.18996765022423 -96.01527113671139 97.18996765022423 -96.01527113671139 97.18996765022423M-125.78412514448299 45.79001133171622C-125.78412514448299 45.79001133171622 -147.4715958726334 58.282319664123364 -147.4715958726334 58.282319664123364C-148.9721445863368 59.14665822320893 -151.39065281009297 59.14666988883823 -152.89457707844053 58.28232527539937C-152.89457707844053 58.28232527539937 -174.6307020528526 45.79000572575268 -174.6307020528526 45.79000572575268C-176.13723938401958 44.92415931676463 -176.14231115774098 43.529836050112195 -174.64176720067627 42.6637345492698C-174.64176720067627 42.6637345492698 -152.9543459498179 30.145935249665545 -152.9543459498179 30.145935249665545C-151.4511613859996 29.278309612551304 -149.02793838810163 29.278321588124054 -147.52139628941904 30.1459355556122C-147.52139628941904 30.1459355556122 -125.78522184597364 42.66374608568852 -125.78522184597364 42.66374608568852C-124.28129549118798 43.52985365256408 -124.28093848714838 44.9241532775444 -125.78412514448299 45.79001133171622C-125.78412514448299 45.79001133171622 -125.78412514448299 45.79001133171622 -125.78412514448299 45.79001133171622M-95.9607727306312 62.96170815106991C-95.9607727306312 62.96170815106991 -117.64824577740308 75.4260662474094 -117.64824577740308 75.4260662474094C-119.14879611505596 76.28847178030631 -121.56461897604171 76.28847165857258 -123.06516958774165 75.42606597384997C-123.06516958774165 75.42606597384997 -144.7526569788284 62.96169971549771 -144.7526569788284 62.96169971549771C-146.25582211306704 62.09779139628708 -146.25817443737705 60.70658937372329 -144.75762542018603 59.84242681247236C-144.75762542018603 59.84242681247236 -123.07015223061822 47.35266329002451 -123.07015223061822 47.35266329002451C-121.56696553611194 46.48698169676705 -119.1464589738158 46.48699364031225 -117.64329251723377 47.352663583641856C-117.64329251723377 47.352663583641856 -95.9558052771818 59.84243527050296 -95.9558052771818 59.84243527050296C-94.45525600627408 60.70659798290387 -94.45758737885293 62.097788206624095 -95.96077273063123 62.96170815106991C-95.96077273063123 62.96170815106991 -95.9607727306312 62.96170815106991 -95.9607727306312 62.96170815106991M-66.20414722161637 80.09498493756968C-66.20414722161637 80.09498493756968 -87.89156835388339 92.53148650638285 -87.89156835388339 92.53148650638285C-89.39211655983556 93.39196549111742 -91.80522937423511 93.3919712448993 -93.30243807289766 92.53148624500984C-93.30243807289766 92.53148624500984 -114.9414560524856 80.09497662520467 -114.9414560524856 80.09497662520467C-116.44125006744969 79.23300577641561 -116.44090532433351 77.84490864762337 -114.94035502565805 76.98267852184887C-114.94035502565805 76.98267852184887 -93.25288446281068 64.5208566904575 -93.25288446281068 64.5208566904575C-91.74969941632942 63.657112614145014 -89.33189297311826 63.65713041871531 -87.83210105789672 64.52085697179999C-87.83210105789672 64.52085697179999 -66.1931325170958 76.98268685657575 -66.1931325170958 76.98268685657575C-64.6959285635234 77.84492300877746 -64.70096693107472 79.2329966021416 -66.20414722161637 80.09498493756968C-66.20414722161637 80.09498493756968 -66.20414722161637 80.09498493756968 -66.20414722161637 80.09498493756968M-95.9059988207407 28.579762561382513C-95.9059988207407 28.579762561382513 -117.64218704324766 41.10013290103396 -117.64218704324766 41.10013290103396C-119.14610290042724 41.96641098525047 -121.56731277763886 41.96641676221902 -123.071239169623 41.10013260294067C-123.071239169623 41.10013260294067 -144.8074160842561 28.579768677697857 -144.8074160842561 28.579768677697857C-146.31395848824843 27.71197765626502 -146.31633164452725 26.314528561872173 -144.8124171167442 25.446481595624288C-144.8124171167442 25.446481595624288 -123.07622875081414 12.90053432250916 -123.07622875081414 12.90053432250916C-121.56968528706308 12.030969956269912 -119.14372955306533 12.030976031254411 -117.63718581777933 12.900540572898066C-117.63718581777933 12.900540572898066 -95.90100905489085 25.44648141829776 -95.90100905489085 25.44648141829776C-94.39708401273509 26.314534471998357 -94.39945670874198 27.711971715010765 -95.9059988207407 28.579762561382513C-95.9059988207407 28.579762561382513 -95.9059988207407 28.579762561382513 -95.9059988207407 28.579762561382513M-66.08270801614746 45.7900027604152C-66.08270801614746 45.7900027604152 -87.81884397440281 58.28232870498821 -87.81884397440281 58.28232870498821C-89.3227576855434 59.14666725661313 -91.74127613177836 59.14666123301194 -93.24182509716199 58.28232252211373C-93.24182509716199 58.28232252211373 -114.92930984637049 45.79000601449262 -114.92930984637049 45.79000601449262C-116.43247626374229 44.92415961198987 -116.43212995288013 43.52984226421823 -114.92821413493857 42.66374077053227C-114.92821413493857 42.66374077053227 -93.1920284130945 30.14592381819002 -93.1920284130945 30.14592381819002C-91.68548660844785 29.278310025091713 -89.26225341381937 29.27831608124328 -87.75908911034736 30.14593004288874C-87.75908911034736 30.14593004288874 -66.07165413295637 42.66373753419304 -66.07165413295637 42.66373753419304C-64.57110994458898 43.529839187143715 -64.5761709994308 44.924156526451 -66.08270801614746 45.7900027604152C-66.08270801614746 45.7900027604152 -66.08270801614746 45.7900027604152 -66.08270801614746 45.7900027604152M-36.32621868614961 62.96169357765869C-36.32621868614961 62.96169357765869 -58.06224814775287 75.42606925655444 -58.06224814775287 75.42606925655444C-59.566155957237704 76.28847478268597 -61.98195830906266 76.28847466095326 -63.47916161668187 75.42606309910907C-63.47916161668187 75.42606309910907 -85.11812273787648 62.96169692903324 -85.11812273787648 62.96169692903324C-86.61791427168023 62.097794510085755 -86.61487089607787 60.70659249845473 -85.11095756663848 59.84242994399647C-85.11095756663848 59.84242994399647 -63.3748290543386 47.35264880333478 -63.3748290543386 47.35264880333478C-61.868292687432096 46.48697902720781 -59.44776569521656 46.48699097075407 -57.947979697344635 47.35265500244273C-57.947979697344635 47.35265500244273 -36.30911763499189 59.842426610279304 -36.30911763499189 59.842426610279304C-34.81192250863994 60.706595212427565 -34.81969052026632 62.09778542628365 -36.32621868614961 62.96169357765869C-36.32621868614961 62.96169357765869 -36.32621868614961 62.96169357765869 -36.32621868614961 62.96169357765869M-36.32621868614961 62.96169357765869C-36.32621868614961 62.96169357765869 -58.06224814775287 75.42606925655444 -58.06224814775287 75.42606925655444C-59.566155957237704 76.28847478268597 -61.98195830906266 76.28847466095326 -63.47916161668187 75.42606309910907C-63.47916161668187 75.42606309910907 -85.11812273787648 62.96169692903324 -85.11812273787648 62.96169692903324C-86.61791427168023 62.097794510085755 -86.61487089607787 60.70659249845473 -85.11095756663848 59.84242994399647C-85.11095756663848 59.84242994399647 -63.3748290543386 47.35264880333478 -63.3748290543386 47.35264880333478C-61.868292687432096 46.48697902720781 -59.44776569521656 46.48699097075407 -57.947979697344635 47.35265500244273C-57.947979697344635 47.35265500244273 -36.30911763499189 59.842426610279304 -36.30911763499189 59.842426610279304C-34.81192250863994 60.706595212427565 -34.81969052026632 62.09778542628365 -36.32621868614961 62.96169357765869C-36.32621868614961 62.96169357765869 -36.32621868614961 62.96169357765869 -36.32621868614961 62.96169357765869"
       style="fill:#da3326;fill-opacity:1;stroke:#000000;stroke-width:2.64583325;stroke-miterlimit:4;stroke-dasharray:none"
       id="use883-3-6"
       inkscape:connector-curvature="0" />
    <path
       style="fill:none;stroke:#000000;stroke-width:0.26458332px;stroke-linecap:butt;stroke-linejoin:miter;stroke-opacity:1"
       d="M -120.35671,9.7608468 -30.895792,61.402221 -120.35671,112.69776 -209.81763,61.402221 Z"
       id="path2973"
       inkscape:connector-curvature="0" />
    <text
       id="text1111"
       y="52.845989"
       x="90.810539"
       style="font-style:normal;font-variant:normal;font-weight:bold;font-stretch:normal;font-size:4.23333311px;line-height:1.25;font-family:Metropolis;-inkscape-font-specification:'Metropolis Bold';font-variant-ligatures:normal;font-variant-caps:normal;font-variant-numeric:normal;font-feature-settings:normal;text-align:center;letter-spacing:0px;word-spacing:0px;writing-mode:lr-tb;text-anchor:middle;fill:#000000;fill-opacity:1;stroke:none;stroke-width:0.26458332"
       xml:space="preserve"><tspan
         style="stroke-width:0.26458332"
         y="56.740654"
         x="90.810539"
         id="tspan1109"
         sodipodi:role="line" /></text>
    <flowRoot
       style="fill:black;fill-opacity:1;stroke:none;font-family:Metropolis;font-style:normal;font-weight:bold;font-size:16px;line-height:1.25;letter-spacing:0px;word-spacing:0px;text-anchor:middle;text-align:center;-inkscape-font-specification:'Metropolis Bold';font-stretch:normal;font-variant:normal;writing-mode:lr;font-variant-ligatures:normal;font-variant-caps:normal;font-variant-numeric:normal;font-feature-settings:normal"
       id="flowRoot1133"
       xml:space="preserve"><flowRegion
         id="flowRegion1135"><rect
           y="199.73288"
           x="233.22089"
           height="97.855255"
           width="84.605499"
           id="rect1137" /></flowRegion><flowPara
         id="flowPara1139" /></flowRoot>    <text
       id="text1143"
       y="72.041672"
       x="71.772423"
       style="font-style:normal;font-variant:normal;font-weight:bold;font-stretch:normal;font-size:17.63888931px;line-height:1.25;font-family:Metropolis;-inkscape-font-specification:'Metropolis Bold';font-variant-ligatures:normal;font-variant-caps:normal;font-variant-numeric:normal;font-feature-settings:normal;text-align:center;letter-spacing:0px;word-spacing:0px;writing-mode:lr-tb;text-anchor:middle;fill:#000000;fill-opacity:1;stroke:none;stroke-width:0.26458332"
       xml:space="preserve"><tspan
         style="stroke-width:0.26458332"
         y="72.041672"
         x="71.772423"
         id="tspan1141"
         sodipodi:role="line">M</tspan></text>
    <flowRoot
       style="fill:black;fill-opacity:1;stroke:none;font-family:Metropolis;font-style:normal;font-weight:bold;font-size:16px;line-height:1.25;letter-spacing:0px;word-spacing:0px;text-anchor:middle;text-align:center;-inkscape-font-specification:'Metropolis Bold';font-stretch:normal;font-variant:normal;writing-mode:lr;font-variant-ligatures:normal;font-variant-caps:normal;font-variant-numeric:normal;font-feature-settings:normal"
       id="flowRoot1163"
       xml:space="preserve"><flowRegion
         id="flowRegion1165"><rect
           y="229.77167"
           x="352.24072"
           height="55.670227"
           width="65.792084"
           id="rect1167" /></flowRegion><flowPara
         id="flowPara1169" /></flowRoot>    <text
       id="text1173"
       y="72.309479"
       x="100.69563"
       style="font-style:normal;font-variant:normal;font-weight:bold;font-stretch:normal;font-size:17.63888931px;line-height:1.25;font-family:Metropolis;-inkscape-font-specification:'Metropolis Bold';font-variant-ligatures:normal;font-variant-caps:normal;font-variant-numeric:normal;font-feature-settings:normal;text-align:center;letter-spacing:0px;word-spacing:0px;writing-mode:lr-tb;text-anchor:middle;fill:#000000;fill-opacity:1;stroke:none;stroke-width:0.26458332"
       xml:space="preserve"><tspan
         style="stroke-width:0.26458332"
         y="72.309479"
         x="100.69563"
         id="tspan1171"
         sodipodi:role="line">A</tspan></text>
    <text
       id="text1143-4"
       y="72.20887"
       x="130.4151"
       style="font-style:normal;font-variant:normal;font-weight:bold;font-stretch:normal;font-size:17.63888931px;line-height:1.25;font-family:Metropolis;-inkscape-font-specification:'Metropolis Bold';font-variant-ligatures:normal;font-variant-caps:normal;font-variant-numeric:normal;font-feature-settings:normal;text-align:center;letter-spacing:0px;word-spacing:0px;writing-mode:lr-tb;text-anchor:middle;fill:#000000;fill-opacity:1;stroke:none;stroke-width:0.26458332"
       xml:space="preserve"><tspan
         style="stroke-width:0.26458332"
         y="72.20887"
         x="130.4151"
         id="tspan1141-9"
         sodipodi:role="line">T</tspan></text>
    <text
       id="text1143-41"
       y="100.86427"
       x="71.765251"
       style="font-style:normal;font-variant:normal;font-weight:bold;font-stretch:normal;font-size:17.63888931px;line-height:1.25;font-family:Metropolis;-inkscape-font-specification:'Metropolis Bold';font-variant-ligatures:normal;font-variant-caps:normal;font-variant-numeric:normal;font-feature-settings:normal;text-align:center;letter-spacing:0px;word-spacing:0px;writing-mode:lr-tb;text-anchor:middle;fill:#000000;fill-opacity:1;stroke:none;stroke-width:0.26458332"
       xml:space="preserve"><tspan
         style="stroke-width:0.26458332"
         y="100.86427"
         x="71.765251"
         id="tspan1141-95"
         sodipodi:role="line">R</tspan></text>
    <text
       id="text1143-7"
       y="101.13208"
       x="101.22408"
       style="font-style:normal;font-variant:normal;font-weight:bold;font-stretch:normal;font-size:17.63888931px;line-height:1.25;font-family:Metropolis;-inkscape-font-specification:'Metropolis Bold';font-variant-ligatures:normal;font-variant-caps:normal;font-variant-numeric:normal;font-feature-settings:normal;text-align:center;letter-spacing:0px;word-spacing:0px;writing-mode:lr-tb;text-anchor:middle;fill:#000000;fill-opacity:1;stroke:none;stroke-width:0.26458332"
       xml:space="preserve"><tspan
         style="stroke-width:0.26458332"
         y="101.13208"
         x="101.22408"
         id="tspan1141-4"
         sodipodi:role="line">I</tspan></text>
    <text
       id="text1143-1"
       y="101.39989"
       x="130.95073"
       style="font-style:normal;font-variant:normal;font-weight:bold;font-stretch:normal;font-size:17.63888931px;line-height:1.25;font-family:Metropolis;-inkscape-font-specification:'Metropolis Bold';font-variant-ligatures:normal;font-variant-caps:normal;font-variant-numeric:normal;font-feature-settings:normal;text-align:center;letter-spacing:0px;word-spacing:0px;writing-mode:lr-tb;text-anchor:middle;fill:#000000;fill-opacity:1;stroke:none;stroke-width:0.26458332"
       xml:space="preserve"><tspan
         style="stroke-width:0.26458332"
         y="101.39989"
         x="130.95073"
         id="tspan1141-2"
         sodipodi:role="line">C</tspan></text>
    <text
       id="text1143-2"
       y="130.59091"
       x="72.033058"
       style="font-style:normal;font-variant:normal;font-weight:bold;font-stretch:normal;font-size:17.63888931px;line-height:1.25;font-family:Metropolis;-inkscape-font-specification:'Metropolis Bold';font-variant-ligatures:normal;font-variant-caps:normal;font-variant-numeric:normal;font-feature-settings:normal;text-align:center;letter-spacing:0px;word-spacing:0px;writing-mode:lr-tb;text-anchor:middle;fill:#000000;fill-opacity:1;stroke:none;stroke-width:0.26458332"
       xml:space="preserve"><tspan
         style="stroke-width:0.26458332"
         y="130.59091"
         x="72.033058"
         id="tspan1141-1"
         sodipodi:role="line">K</tspan></text>
    <text
       id="text1143-6"
       y="130.85872"
       x="100.95628"
       style="font-style:normal;font-variant:normal;font-weight:bold;font-stretch:normal;font-size:17.63888931px;line-height:1.25;font-family:Metropolis;-inkscape-font-specification:'Metropolis Bold';font-variant-ligatures:normal;font-variant-caps:normal;font-variant-numeric:normal;font-feature-settings:normal;text-align:center;letter-spacing:0px;word-spacing:0px;writing-mode:lr-tb;text-anchor:middle;fill:#000000;fill-opacity:1;stroke:none;stroke-width:0.26458332"
       xml:space="preserve"><tspan
         style="stroke-width:0.26458332"
         y="130.85872"
         x="100.95628"
         id="tspan1141-20"
         sodipodi:role="line">S</tspan></text>
    <flowRoot
       style="fill:black;fill-opacity:1;stroke:none;font-family:Metropolis;font-style:normal;font-weight:bold;font-size:16px;line-height:1.25;letter-spacing:0px;word-spacing:0px;text-anchor:middle;text-align:center;-inkscape-font-specification:'Metropolis Bold';font-stretch:normal;font-variant:normal;writing-mode:lr;font-variant-ligatures:normal;font-variant-caps:normal;font-variant-numeric:normal;font-feature-settings:normal"
       id="flowRoot1233"
       xml:space="preserve"><flowRegion
         id="flowRegion1235"><rect
           y="128.55309"
           x="131.58417"
           height="493.94675"
           width="546.58044"
           id="rect1237" /></flowRegion><flowPara
         id="flowPara1239" /></flowRoot>    <g
       style="fill:#ffdd55;opacity:0.99"
       transform="translate(-307.53448,64.006561)"
       id="g1421">
      <g
         id="text1143-29"
         style="font-style:normal;font-variant:normal;font-weight:bold;font-stretch:normal;font-size:17.63888931px;line-height:1.25;font-family:Metropolis;-inkscape-font-specification:'Metropolis Bold';font-variant-ligatures:normal;font-variant-caps:normal;font-variant-numeric:normal;font-feature-settings:normal;text-align:center;letter-spacing:0px;word-spacing:0px;writing-mode:lr-tb;text-anchor:middle;fill:#ffdd55;fill-opacity:1;stroke:none;stroke-width:0.26458332"
         transform="scale(-1,1)"
         aria-label="M" />
      <g
         id="text1173-4"
         style="font-style:normal;font-variant:normal;font-weight:bold;font-stretch:normal;font-size:17.63888931px;line-height:1.25;font-family:Metropolis;-inkscape-font-specification:'Metropolis Bold';font-variant-ligatures:normal;font-variant-caps:normal;font-variant-numeric:normal;font-feature-settings:normal;text-align:center;letter-spacing:0px;word-spacing:0px;writing-mode:lr-tb;text-anchor:middle;fill:#ffdd55;fill-opacity:1;stroke:none;stroke-width:0.26458332"
         aria-label="A" />
      <g
         id="text1143-4-5"
         style="font-style:normal;font-variant:normal;font-weight:bold;font-stretch:normal;font-size:17.63888931px;line-height:1.25;font-family:Metropolis;-inkscape-font-specification:'Metropolis Bold';font-variant-ligatures:normal;font-variant-caps:normal;font-variant-numeric:normal;font-feature-settings:normal;text-align:center;letter-spacing:0px;word-spacing:0px;writing-mode:lr-tb;text-anchor:middle;fill:#ffdd55;fill-opacity:1;stroke:none;stroke-width:0.26458332"
         aria-label="T" />
      <g
         id="text1143-41-1"
         style="font-style:normal;font-variant:normal;font-weight:bold;font-stretch:normal;font-size:17.63888931px;line-height:1.25;font-family:Metropolis;-inkscape-font-specification:'Metropolis Bold';font-variant-ligatures:normal;font-variant-caps:normal;font-variant-numeric:normal;font-feature-settings:normal;text-align:center;letter-spacing:0px;word-spacing:0px;writing-mode:lr-tb;text-anchor:middle;fill:#ffdd55;fill-opacity:1;stroke:none;stroke-width:0.26458332"
         transform="scale(-1,1)"
         aria-label="R" />
      <g
         id="text1143-7-0"
         style="font-style:normal;font-variant:normal;font-weight:bold;font-stretch:normal;font-size:17.63888931px;line-height:1.25;font-family:Metropolis;-inkscape-font-specification:'Metropolis Bold';font-variant-ligatures:normal;font-variant-caps:normal;font-variant-numeric:normal;font-feature-settings:normal;text-align:center;letter-spacing:0px;word-spacing:0px;writing-mode:lr-tb;text-anchor:middle;fill:#ffdd55;fill-opacity:1;stroke:none;stroke-width:0.26458332"
         aria-label="I" />
      <g
         id="text1143-1-1"
         style="font-style:normal;font-variant:normal;font-weight:bold;font-stretch:normal;font-size:17.63888931px;line-height:1.25;font-family:Metropolis;-inkscape-font-specification:'Metropolis Bold';font-variant-ligatures:normal;font-variant-caps:normal;font-variant-numeric:normal;font-feature-settings:normal;text-align:center;letter-spacing:0px;word-spacing:0px;writing-mode:lr-tb;text-anchor:middle;fill:#ffdd55;fill-opacity:1;stroke:none;stroke-width:0.26458332"
         aria-label="C" />
      <g
         id="text1143-2-7"
         style="font-style:normal;font-variant:normal;font-weight:bold;font-stretch:normal;font-size:17.63888931px;line-height:1.25;font-family:Metropolis;-inkscape-font-specification:'Metropolis Bold';font-variant-ligatures:normal;font-variant-caps:normal;font-variant-numeric:normal;font-feature-settings:normal;text-align:center;letter-spacing:0px;word-spacing:0px;writing-mode:lr-tb;text-anchor:middle;fill:#ffdd55;fill-opacity:1;stroke:none;stroke-width:0.26458332"
         aria-label="K" />
      <g
         id="text1143-6-9"
         style="font-style:normal;font-variant:normal;font-weight:bold;font-stretch:normal;font-size:17.63888931px;line-height:1.25;font-family:Metropolis;-inkscape-font-specification:'Metropolis Bold';font-variant-ligatures:normal;font-variant-caps:normal;font-variant-numeric:normal;font-feature-settings:normal;text-align:center;letter-spacing:0px;word-spacing:0px;writing-mode:lr-tb;text-anchor:middle;fill:#ffdd55;fill-opacity:1;stroke:none;stroke-width:0.26458332"
         aria-label="S">
        <path
           d="M231.73839713004656 118.75574476243935C234.86920033873824 116.9491505304764 236.71378925539105 114.00936650671468 236.71378925539105 111.1854979214055C236.71378925539105 108.4478595552417 234.88783502407767 108.55244908857122 232.1297818986739 109.43159317084383C230.15406787260034 110.05349512233974 229.38980037373037 110.1492209225654 229.38980037373037 109.07111480816604C229.38980037373037 108.18706877229923 230.09815407552628 107.06710157418388 231.27244157887387 106.3900593163525C232.5025274699256 105.68084617508163 233.78841712734774 105.5215414395951 234.92510431513116 105.92248386574741C234.92510431513116 105.92248386574741 236.35979623418143 102.81022903040346 236.35979623418143 102.81022903040346C235.05553543401925 102.26871397492496 233.4343449433927 102.4487404297198 231.34699008740535 103.65200199117683C228.55091365255794 105.26380809462736 226.61194475058915 108.25764128206313 226.61194475058915 110.99633662288247C226.61194475058915 113.86442723135121 228.532269940277 113.64097640131953 231.23516188192514 112.79352212254307C233.19207561465726 112.18220146549663 233.93749561750957 112.0756019149884 233.93749561750957 113.13197307419094C233.93749561750957 114.05898517994041 233.22934973648378 115.20052549224744 231.85022103477684 115.99619392915625C230.2286333205663 116.93174560049727 228.8491882992792 116.99446825431227 227.63739336243486 116.48599344158487C227.63739336243486 116.48599344158487 226.05257489176498 119.57827985246715 226.05257489176498 119.57827985246715C227.544178597746 120.31342739224075 229.52028668201766 120.03568006151562 231.73839713004656 118.75574476243935C231.73839713004656 118.75574476243935 231.73839713004656 118.75574476243935 231.73839713004656 118.75574476243935M195.7559792664136 138.93211833012097C195.7559792664136 138.93211833012097 198.5030136934073 137.34703500999086 198.5030136934073 137.34703500999086C198.5030136934073 137.34703500999086 198.5030136934073 133.20219680831315 198.5030136934073 133.20219680831315C198.5030136934073 133.20219680831315 200.10985625991353 130.28932954278804 200.10985625991353 130.28932954278804C200.10985625991353 130.28932954278804 204.0513889908304 134.14553267301724 204.0513889908304 134.14553267301724C204.0513889908304 134.14553267301724 207.3942255385812 132.21666188723682 207.3942255385812 132.21666188723682C207.3942255385812 132.21666188723682 202.03406986268365 126.9130807597891 202.03406986268365 126.9130807597891C202.03406986268365 126.9130807597891 207.03943976663606 117.59547196787574 207.03943976663606 117.59547196787574C207.03943976663606 117.59547196787574 203.69651371633384 119.52250230026141 203.69651371633384 119.52250230026141C203.69651371633384 119.52250230026141 198.5030136934073 129.31641481882878 198.5030136934073 129.31641481882878C198.5030136934073 129.31641481882878 198.5030136934073 122.51629633723113 198.5030136934073 122.51629633723113C198.5030136934073 122.51629633723113 195.7559792664136 124.09982483450256 195.7559792664136 124.09982483450256C195.7559792664136 124.09982483450256 195.7559792664136 138.93211833012097 195.7559792664136 138.93211833012097M264.2626366953504 64.02475662715602C266.1960242396666 62.911777681841485 267.98044715654396 60.91568243166047 269.2256705264978 58.691843969047326C269.2256705264978 58.691843969047326 267.2369654651326 57.76948981085813 267.2369654651326 57.76948981085813C266.4934520072539 59.187831288896106 265.433860373275 60.46516856644614 264.2626366953504 61.13926895942028C262.1244203367185 62.36992414065051 260.3020111960154 61.22206185570471 260.3020111960154 58.63764619810652C260.3020111960154 56.07478087020378 262.1244203367185 52.829800451084665 264.2626366953504 51.599925666611C265.4338603732751 50.926252741678454 266.4934520072539 50.98427610074255 267.2369654651326 51.54701508750935C267.2369654651326 51.54701508750935 269.2256705264978 48.336191721620494 269.2256705264978 48.336191721620494C267.98044715654396 47.52374915009527 266.1960242396666 47.60259158032784 264.2626366953504 48.71443799887534C260.5995625877408 50.82098711748988 257.47490345316317 56.107239219356316 257.47490345316317 60.2642772698548C257.47490345316317 64.4213275314923 260.5995625877408 66.13345147671242 264.2626366953504 64.02475662715602C264.2626366953504 64.02475662715602 264.2626366953504 64.02475662715602 264.2626366953504 64.02475662715602M230.43429902484723 82.91237317232503C230.43429902484723 82.91237317232503 233.19270952918134 81.32452112016887 233.19270952918134 81.32452112016887C233.19270952918134 81.32452112016887 233.19270952918134 66.5134168325904 233.19270952918134 66.5134168325904C233.19270952918134 66.5134168325904 230.43429902484723 68.09970762302245 230.43429902484723 68.09970762302245C230.43429902484723 68.09970762302245 230.43429902484723 82.91237317232503 230.43429902484723 82.91237317232503M195.5795419234439 102.64837275358789C195.5795419234439 102.64837275358789 198.73769176298424 95.64946199357794 198.73769176298424 95.64946199357794C196.9811816518116 95.94776769000171 195.82250396200172 94.88728455001859 195.82250396200172 92.68511208606898C195.82250396200172 89.7488984540501 197.87815252092855 86.4941364330885 200.6621069077447 84.89319083808448C200.6621069077447 84.89319083808448 206.43365879062821 81.57419229162957 206.43365879062821 81.57419229162957C206.43365879062821 81.57419229162957 206.43365879062821 96.40044221530042 206.43365879062821 96.40044221530042C206.43365879062821 96.40044221530042 203.6882860038654 97.9807548914296 203.6882860038654 97.9807548914296C203.6882860038654 97.9807548914296 203.6882860038654 93.16765813580278 203.6882860038654 93.16765813580278C203.6882860038654 93.16765813580278 201.65222998340954 94.33929434819265 201.65222998340954 94.33929434819265C201.65222998340954 94.33929434819265 198.71900661175968 100.8412098549363 198.71900661175968 100.8412098549363C198.71900661175968 100.8412098549363 195.5795419234439 102.64837275358789 195.5795419234439 102.64837275358789M203.68828600386536 86.06671085712676C203.68828600386536 86.06671085712676 200.9610207323535 87.63536004605308 200.9610207323535 87.63536004605308C199.5971746165007 88.4198074284916 198.6629509981916 89.77747704105582 198.6629509981916 91.05113681280827C198.6629509981916 92.32480882316935 199.5971746165007 92.60764882392675 200.9610207323535 91.82298345590885C200.9610207323535 91.82298345590885 203.68828600386536 90.25389836406524 203.68828600386536 90.25389836406524C203.68828600386536 90.25389836406524 203.68828600386536 86.06671085712676 203.68828600386536 86.06671085712676M261.24958264502334 29.860409653574436C261.24958264502334 29.860409653574436 264.0014908848884 28.280018223463856 264.0014908848884 28.280018223463856C264.0014908848884 28.280018223463856 264.0014908848884 16.35033314767854 264.0014908848884 16.35033314767854C264.0014908848884 16.35033314767854 267.97958310860594 14.067573090698176 267.97958310860594 14.067573090698176C267.97958310860594 14.067573090698176 267.97958310860594 11.204027563713652 267.97958310860594 11.204027563713652C267.97958310860594 11.204027563713652 257.2694305260614 17.348691537896542 257.2694305260614 17.348691537896542C257.2694305260614 17.348691537896542 257.2694305260614 20.213410629062395 257.2694305260614 20.213410629062395C257.2694305260614 20.213410629062395 261.24958264502334 17.929468536492863 261.24958264502334 17.929468536492863C261.24958264502334 17.929468536492863 261.24958264502334 29.860409653574436 261.24958264502334 29.860409653574436M234.89999403631356 45.11565855098446C234.89999403631356 45.11565855098446 237.9927909705251 43.339483860647476 237.9927909705251 43.339483860647476C237.9927909705251 43.339483860647476 232.775608264686 31.52435238677147 232.775608264686 31.52435238677147C232.775608264686 31.52435238677147 229.7002197454476 33.28878885901857 229.7002197454476 33.28878885901857C229.7002197454476 33.28878885901857 224.47973212798126 51.09995233488307 224.47973212798126 51.09995233488307C224.47973212798126 51.09995233488307 227.55634443586717 49.33307237816862 227.55634443586717 49.33307237816862C227.55634443586717 49.33307237816862 228.37665097918483 46.53316417010177 228.37665097918483 46.53316417010177C228.37665097918483 46.53316417010177 234.080096356664 43.258217252284 234.080096356664 43.258217252284C234.080096356664 43.258217252284 234.89999403631356 45.11565855098446 234.89999403631356 45.11565855098446M229.32739433749566 43.29195863215553C229.32739433749566 43.29195863215553 231.22868441808168 36.788685798930274 231.22868441808168 36.788685798930274C231.22868441808168 36.788685798930274 233.129698275284 41.10904823279468 233.129698275284 41.10904823279468C233.129698275284 41.10904823279468 229.32739433749566 43.29195863215553 229.32739433749566 43.29195863215553M207.38002006451757 60.592573290857786C207.38002006451757 60.592573290857786 204.6348456535541 62.16907611790215 204.6348456535541 62.16907611790215C204.6348456535541 62.16907611790215 204.6348456535541 52.93170544692454 204.6348456535541 52.93170544692454C204.6348456535541 52.93170544692454 200.65612375312813 63.590540832175776 200.65612375312813 63.590540832175776C200.65612375312813 63.590540832175776 196.69488010159844 57.48868085325867 196.69488010159844 57.48868085325867C196.69488010159844 57.48868085325867 196.69488010159844 66.72885129623029 196.69488010159844 66.72885129623029C196.69488010159844 66.72885129623029 193.9287734765142 68.31737510620601 193.9287734765142 68.31737510620601C193.9287734765142 68.31737510620601 193.9287734765142 53.484047411197224 193.9287734765142 53.484047411197224C193.9287734765142 53.484047411197224 196.69488010159844 51.89708921895394 196.69488010159844 51.89708921895394C196.69488010159844 51.89708921895394 200.65612375312813 57.999794459330076 200.65612375312813 57.999794459330076C200.65612375312813 57.999794459330076 204.6348456535541 47.34180806509666 204.6348456535541 47.34180806509666C204.6348456535541 47.34180806509666 207.38002006451757 45.766859008140955 207.38002006451757 45.766859008140955C207.38002006451757 45.766859008140955 207.38002006451757 60.592573290857786 207.38002006451757 60.592573290857786M251.53957557617204 82.88225063333448C251.53957557617204 82.88225063333448 273.8522719141485 70.02782431848269 273.8522719141485 70.02782431848269C275.39601448673045 69.13846855225108 276.63868850121764 69.8624664848947 276.63868850121764 71.65105100469029C276.63868850121764 71.65105100469029 276.63868850121764 97.47900754128611 276.63868850121764 97.47900754128611C276.63868850121764 99.26759206108176 275.39601448673045 101.42495603114486 273.8522719141485 102.31621956750152C273.8522719141485 102.31621956750152 251.53957557617204 115.19822010116204 251.53957557617204 115.19822010116204C249.99301233576784 116.09111212041651 248.74781259660176 115.36855861916595 248.74781259660176 113.57806458627311C248.74781259660176 113.57806458627311 248.74781259660176 87.72253383065947 248.74781259660176 87.72253383065947C248.74781259660176 85.93203979776669 249.99301233576784 83.77323139665887 251.53957557617204 82.88225063333448C251.53957557617204 82.88225063333448 251.53957557617204 82.88225063333448 251.53957557617204 82.88225063333448M251.53957557617204 47.33468788289747C251.53957557617204 47.33468788289747 273.8522719141485 34.510593205608785 273.8522719141485 34.510593205608785C275.39601448673045 33.62333598629834 276.63868850121764 34.34902319652838 276.63868850121764 36.137607716323956C276.63868850121764 36.137607716323956 276.63868850121764 61.96556425291979 276.63868850121764 61.96556425291979C276.63868850121764 63.75414877271537 275.39601448673045 65.9098234651922 273.8522719141485 66.79898845462762C273.8522719141485 66.79898845462762 251.53957557617204 79.65065735072508 251.53957557617204 79.65065735072508C249.99301233576784 80.54144698867316 248.74781259660176 79.81720077639329 248.74781259660176 78.02670674350051C248.74781259660176 78.02670674350051 248.74781259660176 52.17117598788687 248.74781259660176 52.17117598788687C248.74781259660176 50.38068195499409 249.99301233576784 48.22356626491543 251.53957557617204 47.33468788289747C251.53957557617204 47.33468788289747 251.53957557617204 47.33468788289747 251.53957557617204 47.33468788289747M251.53957557617204 11.787112918549184C251.53957557617204 11.787112918549184 273.8522719141485 -1.006650110754613 273.8522719141485 -1.006650110754613C275.39601448673045 -1.8918087824228778 276.63868850121764 -1.1644322940259855 276.63868850121764 0.6241644279576235C276.63868850121764 0.6241644279576235 276.63868850121764 26.452120964553515 276.63868850121764 26.452120964553515C276.63868850121764 28.240705484349093 275.39601448673045 30.39469089923945 273.8522719141485 31.281757341753718C273.8522719141485 31.281757341753718 251.53957557617204 44.103094600288046 251.53957557617204 44.103094600288046C249.99301233576784 44.99178185692972 248.74781259660176 44.265842933620746 248.74781259660176 42.475348900727965C248.74781259660176 42.475348900727965 248.74781259660176 16.619818145114266 248.74781259660176 16.619818145114266C248.74781259660176 14.82931189700625 249.99301233576784 12.673888918538395 251.53957557617204 11.787112918549184C251.53957557617204 11.787112918549184 251.53957557617204 11.787112918549184 251.53957557617204 11.787112918549184M220.7973282743202 100.59297222021928C220.7973282743202 100.59297222021928 243.16248739037553 87.70832190622036 243.16248739037553 87.70832190622036C244.7098586169293 86.81687565910755 245.9554534507281 87.54088206446144 245.9554534507281 89.33156727264685C245.9554534507281 89.33156727264685 245.9554534507281 115.18985868457432 245.9554534507281 115.18985868457432C245.9554534507281 116.98054389275961 244.70985861692932 119.14128534890497 243.16248739037553 120.03464385046402C243.16248739037553 120.03464385046402 220.79732827432022 132.94693321721644 220.79732827432022 132.94693321721644C219.2471052723297 133.8419381613274 217.99898530539036 133.11937582581257 217.99898530539036 131.32677661384125C217.99898530539036 131.32677661384125 217.99898530539036 105.44084613535168 217.99898530539036 105.44084613535168C217.99898530539036 103.64824692338024 219.2471052723297 101.48606138563574 220.79732827432022 100.59297222021922C220.79732827432022 100.59297222021922 220.7973282743202 100.59297222021928 220.7973282743202 100.59297222021928M220.7973282743202 65.00361879200355C220.7973282743202 65.00361879200355 243.16248739037553 52.14937143289967 243.16248739037553 52.14937143289967C244.7098586169293 51.260028665460865 245.9554534507281 51.98572831893122 245.9554534507281 53.77641352711659C245.9554534507281 53.77641352711659 245.9554534507281 79.63470493904413 245.9554534507281 79.63470493904413C245.9554534507281 81.42539014722948 244.70985861692932 83.58443835525821 243.16248739037553 84.47569337714324C243.16248739037553 84.47569337714324 220.79732827432022 97.35757978900065 220.79732827432022 97.35757978900065C219.2471052723297 98.25047737676496 217.99898530539036 97.52621836049497 217.99898530539036 95.73361914852364C217.99898530539036 95.73361914852364 217.99898530539036 69.84768867003396 217.99898530539036 69.84768867003396C217.99898530539036 68.05508945806267 219.2471052723297 65.89460060107342 220.79732827432022 65.00361879200355C220.79732827432022 65.00361879200355 220.7973282743202 65.00361879200355 220.7973282743202 65.00361879200355M220.7973282743202 29.414253135517484C220.7973282743202 29.414253135517484 243.16248739037553 16.5904087417549 243.16248739037553 16.5904087417549C244.7098586169293 15.70316945471285 245.9554534507281 16.430562356881552 245.9554534507281 18.22125978158644C245.9554534507281 18.22125978158644 245.9554534507281 44.07955119351392 245.9554534507281 44.07955119351392C245.9554534507281 45.87023640169933 244.70985861692932 48.02759136161147 243.16248739037553 48.91674290382248C243.16248739037553 48.91674290382248 220.79732827432022 61.768226360784865 220.79732827432022 61.768226360784865C219.2471052723297 62.65901659220253 217.99898530539036 61.933060895177476 217.99898530539036 60.140461683206055C217.99898530539036 60.140461683206055 217.99898530539036 34.2545312047165 217.99898530539036 34.2545312047165C217.99898530539036 32.46191976316787 219.2471052723297 30.303127587516656 220.79732827432022 29.414253135517484C220.79732827432022 29.414253135517484 220.7973282743202 29.414253135517484 220.7973282743202 29.414253135517484M189.9826939769786 118.3453962210832C189.9826939769786 118.3453962210832 212.40051810254107 105.43040540166865 212.40051810254107 105.43040540166865C213.95152973432528 104.53686190373139 215.20004617583095 105.26088030551347 215.20004617583095 107.05367114326762C215.20004617583095 107.05367114326762 215.20004617583095 132.9423687833495 215.20004617583095 132.9423687833495C215.20004617583095 134.73515962110355 213.95152973432528 136.89928299645175 212.40051810254107 137.79474324767878C212.40051810254107 137.79474324767878 189.9826939769786 150.73743820371098 189.9826939769786 150.73743820371098C188.42884066117662 151.63453907131534 187.1777710771761 150.9119808793491 187.1777710771761 149.11727153242032C187.1777710771761 149.11727153242032 187.1777710771761 123.20086976595712 187.1777710771761 123.20086976595712C187.1777710771761 121.40616041902823 188.4288406611766 119.24057682362067 189.9826939769786 118.3453962210832C189.9826939769786 118.3453962210832 189.9826939769786 118.3453962210832 189.9826939769786 118.3453962210832M189.9826939769786 82.71415371299167C189.9826939769786 82.71415371299167 212.40051810254107 69.82963744071526 212.40051810254107 69.82963744071526C213.95152973432528 68.93820237117939 215.20004617583095 69.6639179926799 215.20004617583095 71.45670883043394C215.20004617583095 71.45670883043394 215.20004617583095 97.3454064705158 215.20004617583095 97.3454064705158C215.20004617583095 99.13819730826984 213.95152973432528 101.30062346389965 212.40051810254107 102.19397528672528C212.40051810254107 102.19397528672528 189.9826939769786 115.10619569561933 189.9826939769786 115.10619569561933C188.42884066117662 116.0011842718678 187.1777710771761 115.27692538946894 187.1777710771761 113.48221604254016C187.1777710771761 113.48221604254016 187.1777710771761 87.56581427607696 187.1777710771761 87.56581427607696C187.1777710771761 85.77110492914818 188.4288406611766 83.60722202417318 189.9826939769786 82.71415371299167C189.9826939769786 82.71415371299167 189.9826939769786 82.71415371299167 189.9826939769786 82.71415371299167M189.9826939769786 47.08289896223695C189.9826939769786 47.08289896223695 212.40051810254107 34.22885724756952 212.40051810254107 34.22885724756952C213.95152973432528 33.33953060715952 215.20004617583095 34.06694344896158 215.20004617583095 35.85974651760024C215.20004617583095 35.85974651760024 215.20004617583095 61.748444157682115 215.20004617583095 61.748444157682115C215.20004617583095 63.541234995436156 213.95152973432528 65.70196393134765 212.40051810254107 66.59320732577189C212.40051810254107 66.59320732577189 189.9826939769786 79.47495318752777 189.9826939769786 79.47495318752777C188.42884066117662 80.36782947242034 187.1777710771761 79.64186989958878 187.1777710771761 77.84716055266C187.1777710771761 77.84716055266 187.1777710771761 51.93075878619692 187.1777710771761 51.93075878619692C187.1777710771761 50.136037195294946 188.4288406611766 47.973854981336856 189.9826939769786 47.08289896223695C189.9826939769786 47.08289896223695 189.9826939769786 47.08289896223695 189.9826939769786 47.08289896223695M189.9826939769786 47.08289896223695C189.9826939769786 47.08289896223695 212.40051810254107 34.22885724756952 212.40051810254107 34.22885724756952C213.95152973432528 33.33953060715952 215.20004617583095 34.06694344896158 215.20004617583095 35.85974651760024C215.20004617583095 35.85974651760024 215.20004617583095 61.748444157682115 215.20004617583095 61.748444157682115C215.20004617583095 63.541234995436156 213.95152973432528 65.70196393134765 212.40051810254107 66.59320732577189C212.40051810254107 66.59320732577189 189.9826939769786 79.47495318752777 189.9826939769786 79.47495318752777C188.42884066117662 80.36782947242034 187.1777710771761 79.64186989958878 187.1777710771761 77.84716055266C187.1777710771761 77.84716055266 187.1777710771761 51.93075878619692 187.1777710771761 51.93075878619692C187.1777710771761 50.136037195294946 188.4288406611766 47.973854981336856 189.9826939769786 47.08289896223695C189.9826939769786 47.08289896223695 189.9826939769786 47.08289896223695 189.9826939769786 47.08289896223695"
           style="stroke-width:0.26458332;fill:#ffdd55"
           id="path1665" />
      </g>
    </g>
  </g>
</svg>
