<?xml version="1.0" encoding="UTF-8" standalone="no"?>
<!-- Created with Inkscape (http://www.inkscape.org/) -->

<svg
   xmlns:osb="http://www.openswatchbook.org/uri/2009/osb"
   xmlns:dc="http://purl.org/dc/elements/1.1/"
   xmlns:cc="http://creativecommons.org/ns#"
   xmlns:rdf="http://www.w3.org/1999/02/22-rdf-syntax-ns#"
   xmlns:svg="http://www.w3.org/2000/svg"
   xmlns="http://www.w3.org/2000/svg"
   xmlns:sodipodi="http://sodipodi.sourceforge.net/DTD/sodipodi-0.dtd"
   xmlns:inkscape="http://www.inkscape.org/namespaces/inkscape"
   width="210mm"
   height="297mm"
   viewBox="0 0 210 297"
   version="1.1"
   id="svg8"
   inkscape:version="0.92.3 (2405546, 2018-03-11)"
   sodipodi:docname="rysunek.svg">
  <sodipodi:namedview
     id="base"
     pagecolor="#ffffff"
     bordercolor="#666666"
     borderopacity="1.0"
     inkscape:pageopacity="0.0"
     inkscape:pageshadow="2"
     inkscape:zoom="0.17"
     inkscape:cx="-1093.4115"
     inkscape:cy="197.81495"
     inkscape:document-units="mm"
     inkscape:current-layer="layer1"
     showgrid="false"
     inkscape:window-width="1366"
     inkscape:window-height="703"
     inkscape:window-x="0"
     inkscape:window-y="0"
     inkscape:window-maximized="1" />
  <defs
     id="defs2">
    <linearGradient
       id="linearGradient2766"
       osb:paint="solid">
      <stop
         style="stop-color:#000000;stop-opacity:1;"
         offset="0"
         id="stop2764" />
    </linearGradient>
    <style
       id="style2">.cls-1,.cls-2{fill:#fff;}.cls-2{opacity:0.25;}.cls-3{fill:#db1f26;}.cls-4{fill:#4d4d4d;}.cls-5{fill:#e6b35a;}</style>
  </defs>
  <metadata
     id="metadata5">
    <rdf:RDF>
      <cc:Work
         rdf:about="">
        <dc:format>image/svg+xml</dc:format>
        <dc:type
           rdf:resource="http://purl.org/dc/dcmitype/StillImage" />
        <dc:title />
      </cc:Work>
    </rdf:RDF>
  </metadata>
  <g
     inkscape:label="Layer 1"
     inkscape:groupmode="layer"
     id="layer1">
    <g
       id="g1069"
       transform="matrix(0.26458333,0,0,0.26458333,-67.963143,-2.0388863)">
      <g
         style="font-style:normal;font-variant:normal;font-weight:bold;font-stretch:normal;font-size:16px;line-height:1.25;font-family:Metropolis;-inkscape-font-specification:'Metropolis Bold';font-variant-ligatures:normal;font-variant-caps:normal;font-variant-numeric:normal;font-feature-settings:normal;text-align:center;letter-spacing:0px;word-spacing:0px;writing-mode:lr-tb;text-anchor:middle;fill:#000000;fill-opacity:1;stroke:none"
         id="flowRoot934" />
      <g
         style="font-style:normal;font-variant:normal;font-weight:bold;font-stretch:normal;font-size:16px;line-height:1.25;font-family:Metropolis;-inkscape-font-specification:'Metropolis Bold';font-variant-ligatures:normal;font-variant-caps:normal;font-variant-numeric:normal;font-feature-settings:normal;text-align:center;letter-spacing:0px;word-spacing:0px;writing-mode:lr-tb;text-anchor:middle;fill:#000000;fill-opacity:1;stroke:none"
         id="flowRoot942" />
      <g
         style="font-style:normal;font-variant:normal;font-weight:bold;font-stretch:normal;font-size:16px;line-height:1.25;font-family:Metropolis;-inkscape-font-specification:'Metropolis Bold';font-variant-ligatures:normal;font-variant-caps:normal;font-variant-numeric:normal;font-feature-settings:normal;text-align:center;letter-spacing:0px;word-spacing:0px;writing-mode:lr-tb;text-anchor:middle;fill:#000000;fill-opacity:1;stroke:none"
         id="flowRoot950" />
    </g>
    <path
       id="use883"
       style="fill:#57c526;fill-opacity:1;stroke:#000000;stroke-width:2.64583325;stroke-miterlimit:4;stroke-dasharray:none"
       d="M-181.34754576153554 107.32552470532642C-181.34754576153554 107.32552470532642 -181.345825244738 82.19725583954568 -181.345825244738 82.19725583954568C-181.34570610264151 80.45717713847915 -182.55455182048317 78.35833043230205 -184.05624248793666 77.49132916966019C-184.05624248793666 77.49132916966019 -205.74138640931707 64.97140907700263 -205.74138640931707 64.97140907700263C-207.24308428702608 64.10440365151895 -208.45218119590245 64.80725486305637 -208.4523532910222 66.54730787550048C-208.4523532910222 66.54730787550048 -208.4548384961094 91.67520577707762 -208.4548384961094 91.67520577707762C-208.45501060161143 93.41536376466792 -207.24614816207333 95.51430264883324 -205.74439732950952 96.38133376369227C-205.74439732950952 96.38133376369227 -184.0584887197671 108.90162482058845 -184.0584887197671 108.90162482058845C-182.55674509796737 109.76865177233555 -181.3476649108197 109.06570838279418 -181.34754576153554 107.32552470532642C-181.34754576153554 107.32552470532642 -181.34754576153554 107.32552470532642 -181.34754576153554 107.32552470532642M-151.52970359534257 124.5407716952225C-151.52970359534257 124.5407716952225 -151.52882422563295 99.4120947741411 -151.52882422563295 99.4120947741411C-151.52876333116745 97.67198781595859 -152.73765872217686 95.57311675585737 -154.23934011769504 94.70612084636832C-154.23934011769504 94.70612084636832 -175.92433990274995 82.18628397083323 -175.92433990274995 82.18628397083323C-177.42603875336496 81.3192779836422 -178.63507105955674 82.02216216863746 -178.63518490639163 83.762243438545C-178.63518490639163 83.762243438545 -178.63682895494796 108.8905494004392 -178.63682895494796 108.8905494004392C-178.63694280865104 110.63073564687352 -177.4280511834375 112.72968705599428 -175.92629937826035 113.59671873238852C-175.92629937826035 113.59671873238852 -154.2405349146477 126.11692656697055 -154.2405349146477 126.11692656697055C-152.73880056543715 126.98394816521746 -151.52976449348176 126.28098363118693 -151.52970359534257 124.5407716952225C-151.52970359534257 124.5407716952225 -151.52970359534257 124.5407716952225 -151.52970359534257 124.5407716952225M-121.71205271154471 141.75590824876775C-121.71205271154471 141.75590824876775 -121.71201447833354 116.62682327800196 -121.71201447833354 116.62682327800196C-121.71201183076569 114.88668806309224 -122.92093742918534 112.78780388759637 -124.42261160181008 111.9208121482456C-124.42261160181008 111.9208121482456 -146.10748774154948 99.4010466593462 -146.10748774154948 99.4010466593462C-147.60916707533713 98.53405194019754 -148.81814502446704 99.2369631833661 -148.81820062373635 100.97707271035492C-148.81820062373635 100.97707271035492 -148.81900352614903 126.10578672704808 -148.81900352614903 126.10578672704808C-148.81905912877252 127.84600123194431 -147.61012807305775 129.9449710808651 -146.1083957857232 130.81199148869436C-146.1083957857232 130.81199148869436 -124.42275497650763 143.3321279317996 -124.42275497650763 143.3321279317996C-122.92102785077223 144.19914535959583 -121.7120553592723 143.4961484428399 -121.71205271154471 141.75590824876775C-121.71205271154471 141.75590824876775 -121.71205271154471 141.75590824876775 -121.71205271154471 141.75590824876775M-181.34991163165535 141.87922424389905C-181.34991163165535 141.87922424389905 -181.34819098056454 116.74899401516002 -181.34819098056454 116.74899401516002C-181.34807182922495 115.00878031812492 -182.55696443480366 112.90981405541282 -184.05871335225743 112.04278453466777C-184.05871335225743 112.04278453466777 -205.74469843400456 99.52245638008414 -205.74469843400456 99.52245638008414C-207.2464545622733 98.65542269620006 -208.45559837598967 99.35834796412229 -208.4557704844607 101.09853597092088C-208.4557704844607 101.09853597092088 -208.45825588352875 126.22839521197272 -208.45825588352875 126.22839521197272C-208.45842800238322 127.96868820618047 -207.24951867502142 130.06775852957105 -205.74770958778953 130.93481790444457C-205.74770958778953 130.93481790444457 -184.0609597583541 143.45551704657515 -184.0609597583541 143.45551704657515C-182.55915788244576 144.32257225803957 -181.35003079018347 143.6195429295984 -181.34991163165535 141.87922424389905C-181.34991163165535 141.87922424389905 -181.34991163165535 141.87922424389905 -181.34991163165535 141.87922424389905M-151.53091281022665 159.0950323405202C-151.53091281022665 159.0950323405202 -151.53003337187886 133.9643940306491 -151.53003337187886 133.9643940306491C-151.52997247268914 132.22415207472258 -152.7389147544944 130.12516145696472 -154.2406543992936 129.2581372897546C-154.2406543992936 129.2581372897546 -175.9264953339305 116.7378923580043 -175.9264953339305 116.7378923580043C-177.42825243478327 115.87085811260224 -178.637331641598 116.57381635571929 -178.63744549726516 118.31403262175674C-178.63744549726516 118.31403262175674 -178.63908967414608 143.44429994895756 -178.63908967414608 143.44429994895756C-178.63920353668223 145.18462120378493 -177.43026502098323 147.28370405305992 -175.92845496146 148.15076398927928C-175.92845496146 148.15076398927928 -154.24184928894024 160.67137990338426 -154.24184928894024 160.67137990338426C-152.7400566863405 161.53842976096632 -151.53097371309048 160.8353792864917 -151.53091281022665 159.0950323405202C-151.53091281022665 159.0950323405202 -151.53091281022665 159.0950323405202 -151.53091281022665 159.0950323405202M-121.71210528575497 176.3107299930676C-121.71210528575497 176.3107299930676 -121.71206704955956 151.17968360768128 -121.71206704955956 151.17968360768128C-121.71206440178634 149.4394133932522 -122.92103689330557 147.34040965934432 -124.42276931457145 146.47338966261603C-124.42276931457145 146.47338966261603 -146.10848659390305 133.95321612282672 -146.10848659390305 133.95321612282672C-147.61022417681173 133.08619314604192 -148.81924902274497 133.78917844887638 -148.81930462632764 135.52942297377055C-148.81930462632764 135.52942297377055 -148.8201075914099 160.66009838160167 -148.8201075914099 160.66009838160167C-148.82016319834722 162.4004478966665 -147.6111852490878 164.49954918686325 -146.109394708524 165.36659785394264C-146.109394708524 165.36659785394264 -124.42291270039222 177.8871423712451 -124.42291270039222 177.8871423712451C-122.9211273219075 178.7541880580329 -121.71210793368797 178.05110519892233 -121.712105285755 176.3107299930676C-121.712105285755 176.3107299930676 -121.71210528575497 176.3107299930676 -121.71210528575497 176.3107299930676M-181.35227768451625 176.43559272900686C-181.35227768451625 176.43559272900686 -181.35055690074248 151.3034246555297 -181.35055690074248 151.3034246555297C-181.35043773934578 149.56306407368191 -182.55937723546984 147.4639663691575 -184.06118440742304 146.59690858854339C-184.06118440742304 146.59690858854339 -205.74801071450716 134.07617234653466 -205.74801071450716 134.07617234653466C-207.24982509783476 133.2091104024844 -208.4590158211887 133.9121216090501 -208.45918794418674 135.65245649887197C-208.45918794418674 135.65245649887197 -208.46167353490966 160.7842535615268 -208.46167353490966 160.7842535615268C-208.4618456682925 162.52469345169249 -207.25288944946956 164.62389522838703 -205.75102210304996 165.49098286505074C-205.75102210304996 165.49098286505074 -184.06343098865534 178.01209011805707 -184.06343098865534 178.01209011805707C-182.56157085411874 178.87917359101442 -181.3523968531024 178.17605831245382 -181.35227768451625 176.43559272900686C-181.35227768451625 176.43559272900686 -181.35227768451625 176.43559272900686 -181.35227768451625 176.43559272900686M-151.53212211851084 193.65196196741599C-151.53212211851084 193.65196196741599 -151.53124261234794 168.51938578735871 -151.53124261234794 168.51938578735871C-151.53118170801798 166.77899694465117 -152.74017088382521 164.67987488376644 -154.24196878240448 163.8128224570694C-154.24196878240448 163.8128224570694 -175.9286509315923 151.29216944360553 -175.9286509315923 151.29216944360553C-177.430466287182 150.42510693822666 -178.63959239901925 151.12815112191709 -178.63970626429654 152.86851427294624C-178.63970626429654 152.86851427294624 -178.64135056796331 178.00071944719866 -178.64135056796331 178.00071944719866C-178.64146444011047 179.7411875999525 -177.43247903028825 181.8404019034605 -175.9306107118993 182.70749010128063C-175.9306107118993 182.70749010128063 -154.24316376520747 195.22851412054936 -154.24316376520747 195.22851412054936C-152.74131290469893 196.09559223924217 -151.53218302651538 195.39245581310365 -151.53212211851084 193.65196196741599C-151.53212211851084 193.65196196741599 -151.53212211851084 193.65196196741599 -151.53212211851084 193.65196196741599M-121.7121578640261 210.8682207540278C-121.7121578640261 210.8682207540278 -121.71211962488219 185.73523647300775 -121.71211962488219 185.73523647300775C-121.71211697688548 183.9948193698293 -122.92113636510818 181.89568419184633 -124.42292703951419 181.02863593597476C-124.42292703951419 181.02863593597476 -146.10948552340577 168.50805431979765 -146.10948552340577 168.50805431979765C-147.6112813599345 167.641003083611 -148.82035310667277 168.34407432875594 -148.82040871494874 170.08446574061017C-148.82040871494874 170.08446574061017 -148.82121174194913 195.21707902094093 -148.82121174194913 195.21707902094093C-148.82126735358008 196.9575754359007 -147.612242507138 199.0568081814523 -146.11039370882543 199.9238851095575C-146.11039370882543 199.9238851095575 -124.42307043651363 212.44483772669733 -124.42307043651363 212.44483772669733C-122.92122680076011 213.31191167425223 -121.7121605121826 212.60874286156712 -121.7121578640261 210.8682207540278C-121.7121578640261 210.8682207540278 -121.7121578640261 210.8682207540278 -121.7121578640261 210.8682207540278M-121.7121578640261 210.8682207540278C-121.7121578640261 210.8682207540278 -121.71211962488219 185.73523647300775 -121.71211962488219 185.73523647300775C-121.71211697688548 183.9948193698293 -122.92113636510818 181.89568419184633 -124.42292703951419 181.02863593597476C-124.42292703951419 181.02863593597476 -146.10948552340577 168.50805431979765 -146.10948552340577 168.50805431979765C-147.6112813599345 167.641003083611 -148.82035310667277 168.34407432875594 -148.82040871494874 170.08446574061017C-148.82040871494874 170.08446574061017 -148.82121174194913 195.21707902094093 -148.82121174194913 195.21707902094093C-148.82126735358008 196.9575754359007 -147.612242507138 199.0568081814523 -146.11039370882543 199.9238851095575C-146.11039370882543 199.9238851095575 -124.42307043651363 212.44483772669733 -124.42307043651363 212.44483772669733C-122.92122680076011 213.31191167425223 -121.7121605121826 212.60874286156712 -121.7121578640261 210.8682207540278C-121.7121578640261 210.8682207540278 -121.7121578640261 210.8682207540278 -121.7121578640261 210.8682207540278"
       inkscape:connector-curvature="0" />
    <path
       inkscape:connector-curvature="0"
       id="use883-0"
       style="fill:#cec526;fill-opacity:1;stroke:#000000;stroke-width:2.64583325;stroke-miterlimit:4;stroke-dasharray:none"
       d="M-56.5870438269255 146.6423658315121C-56.5870438269255 146.6423658315121 -34.9489602573589 134.1770726043534 -34.9489602573589 134.1770726043534C-33.4518396591278 133.31460956813441 -32.24669949709231 134.01669653749505 -32.24669949709231 135.75117110185425C-32.24669949709231 135.75117110185425 -32.24669949709231 160.79775579846032 -32.24669949709231 160.79775579846032C-32.24669949709231 162.5322303628195 -33.4518396591278 164.62429054673925 -34.9489602573589 165.48854767185756C-34.9489602573589 165.48854767185756 -56.5870438269255 177.97977110502694 -56.5870438269255 177.97977110502694C-58.086806802453744 178.8455536205574 -59.294321878358375 178.14482437839766 -59.294321878358375 176.40855414789812C-59.294321878358375 176.40855414789812 -59.294321878358375 151.33603923300257 -59.294321878358375 151.33603923300257C-59.294321878358375 149.599769002503 -58.08680680245369 147.50635109162488 -56.5870438269255 146.6423658315121C-56.5870438269255 146.6423658315121 -56.5870438269255 146.6423658315121 -56.5870438269255 146.6423658315121M-56.5870438269255 112.17121173980362C-56.5870438269255 112.17121173980362 -34.9489602573589 99.73444174611693 -34.9489602573589 99.73444174611693C-33.4518396591278 98.87395220816187 -32.24669949709231 99.5776396214027 -32.24669949709231 101.31211418576181C-32.24669949709231 101.31211418576181 -32.24669949709231 126.358698882368 -32.24669949709231 126.358698882368C-32.24669949709231 128.09318527976296 -33.4518396591278 130.18364502034845 -34.9489602573589 131.04592864788097C-34.9489602573589 131.04592864788097 -56.5870438269255 143.50862885737868 -56.5870438269255 143.50862885737868C-58.086806802453744 144.37243439215354 -59.294321878358375 143.67012525438096 -59.294321878358375 141.93384317859508C-59.294321878358375 141.93384317859508 -59.294321878358375 116.86132826369946 -59.294321878358375 116.86132826369946C-59.294321878358375 115.12505803319998 -58.08680680245369 113.03322001848152 -56.5870438269255 112.17121173980362C-56.5870438269255 112.17121173980362 -56.5870438269255 112.17121173980362 -56.5870438269255 112.17121173980362M-56.5870438269255 77.70006593893726C-56.5870438269255 77.70006593893726 -34.9489602573589 65.2918191718623 -34.9489602573589 65.2918191718623C-33.4518396591278 64.43330313169649 -32.24669949709231 65.13856850566722 -32.24669949709231 66.87304543663356C-32.24669949709231 66.87304543663356 -32.24669949709231 91.91963841636478 -32.24669949709231 91.91963841636478C-32.24669949709231 93.65411416402755 -33.4518396591278 95.74298766037589 -34.9489602573589 96.60329778964446C-34.9489602573589 96.60329778964446 -56.5870438269255 109.0374747656702 -56.5870438269255 109.0374747656702C-58.086806802453744 109.8993033190101 -59.294321878358375 109.19540007073427 -59.294321878358375 107.45912865570608C-59.294321878358375 107.45912865570608 -59.294321878358375 82.38660544911004 -59.294321878358375 82.38660544911004C-59.294321878358375 80.65033284955321 -58.08680680245369 78.56009723665575 -56.5870438269255 77.70006593893726C-56.5870438269255 77.70006593893726 -56.5870438269255 77.70006593893726 -56.5870438269255 77.70006593893726M-86.39800600278684 163.81590080336588C-86.39800600278684 163.81590080336588 -64.71057023834621 151.32217670438206 -64.71057023834621 151.32217670438206C-63.21004746296096 150.45775373785304 -62.00217078035637 151.15985458301424 -62.00217078035637 152.89630458504848C-62.00217078035637 152.89630458504848 -62.00217078035637 177.97141548091926 -62.00217078035637 177.97141548091926C-62.00217078035637 179.70786548295348 -63.210047462961015 181.80309575161297 -64.71057023834621 182.66931688407308C-64.71057023834621 182.66931688407308 -86.39800600278684 195.18903033074602 -86.39800600278684 195.18903033074602C-87.90119044807527 196.05678799084532 -89.11147067630877 195.35606137078173 -89.11147067630877 193.61781160789513C-89.11147067630877 193.61781160789513 -89.11147067630877 168.51671136427072 -89.11147067630877 168.51671136427072C-89.11147067630877 166.77846160138404 -87.90119044807527 164.68185710789635 -86.39800600278684 163.81590080336588C-86.39800600278684 163.81590080336588 -86.39800600278684 163.81590080336588 -86.39800600278684 163.81590080336588M-86.39800600278684 129.30545002295418C-86.39800600278684 129.30545002295418 -64.71057023834621 116.84031421330428 -64.71057023834621 116.84031421330428C-63.21004746296096 115.97786922977524 -62.00217078035637 116.68157413956376 -62.00217078035637 118.41802414159805C-62.00217078035637 118.41802414159805 -62.00217078035637 143.4931350374688 -62.00217078035637 143.4931350374688C-62.00217078035637 145.2295968860159 -63.210047462961015 147.32322309059506 -64.71057023834621 148.1874662407348C-64.71057023834621 148.1874662407348 -86.39800600278684 160.67859140789656 -86.39800600278684 160.67859140789656C-87.90119044807527 161.54436757707444 -89.11147067630877 160.84205742989167 -89.11147067630877 159.1037958082137C-89.11147067630877 159.1037958082137 -89.11147067630877 134.00269556458935 -89.11147067630877 134.00269556458935C-89.11147067630877 132.26444580170266 -87.90119044807527 130.1694248358823 -86.39800600278684 129.30545002295418C-86.39800600278684 129.30545002295418 -86.39800600278684 129.30545002295418 -86.39800600278684 129.30545002295418M-86.39800600278684 94.79500754283606C-86.39800600278684 94.79500754283606 -64.71057023834621 82.35846001564416 -64.71057023834621 82.35846001564416C-63.21004746296096 81.49799301463933 -62.00217078035637 82.20327948029794 -62.00217078035637 83.93973185163479C-62.00217078035637 83.93973185163479 -62.00217078035637 109.01485104006446 -62.00217078035637 109.01485104006446C-62.00217078035637 110.75130222675003 -63.210047462961015 112.84333858251726 -64.71057023834621 113.70560374965704C-64.71057023834621 113.70560374965704 -86.39800600278684 126.16814062748486 -86.39800600278684 126.16814062748486C-87.90119044807527 127.03193530506033 -89.11147067630877 126.32802739966073 -89.11147067630877 124.58977645089499C-89.11147067630877 124.58977645089499 -89.11147067630877 99.48866790611665 -89.11147067630877 99.48866790611665C-89.11147067630877 97.75041577147178 -87.90119044807527 95.65700086463838 -86.39800600278684 94.79500754283606C-86.39800600278684 94.79500754283606 -86.39800600278684 94.79500754283606 -86.39800600278684 94.79500754283606M-116.27701400532874 181.0286356969563C-116.27701400532874 181.0286356969563 -94.54006729368334 168.5063892719135 -94.54006729368334 168.5063892719135C-93.0361204466822 167.63999376208676 -91.82548763011584 168.34210081026802 -91.82548763011584 170.08053075418053C-91.82548763011584 170.08053075418053 -91.82548763011584 195.18423289201448 -91.82548763011584 195.18423289201448C-91.82548763011584 196.92266283592699 -93.03612044668226 199.02107813789416 -94.54006729368334 199.88927591692124C-94.54006729368334 199.88927591692124 -116.27701400532874 212.43757102157392 -116.27701400532874 212.43757102157392C-117.78363164205209 213.30731059292552 -118.99666594784773 212.60657656482647 -118.99666594784773 210.86634275201146C-118.99666594784773 210.86634275201146 -118.99666594784773 185.73659194435257 -118.99666594784773 185.73659194435257C-118.99666594784773 183.99635813153762 -117.78363164205203 181.89656979854087 -116.27701400532874 181.0286356969563C-116.27701400532874 181.0286356969563 -116.27701400532874 181.0286356969563 -116.27701400532874 181.0286356969563M-116.27701400532874 146.4787985301103C-116.27701400532874 146.4787985301103 -94.54006729368334 133.98520565953 -94.54006729368334 133.98520565953C-93.0361204466822 133.1207926463005 -91.82548763011584 133.8245074057413 -91.82548763011584 135.56293734965385C-91.82548763011584 135.56293734965385 -91.82548763011584 160.66663948748774 -91.82548763011584 160.66663948748774C-91.82548763011584 162.40508129142083 -93.03612044668226 164.50188888267667 -94.54006729368334 165.36810416578777C-94.54006729368334 165.36810416578777 -116.27701400532874 177.88774572582307 -116.27701400532874 177.88774572582307C-117.78363164205209 178.7554992806358 -118.99666594784773 178.05317810854066 -118.99666594784773 176.31293242339876C-118.99666594784773 176.31293242339876 -118.99666594784773 151.18318161573987 -118.99666594784773 151.18318161573987C-118.99666594784773 149.44294780292486 -117.78363164205203 147.34474661447356 -116.27701400532874 146.4787985301103C-116.27701400532874 146.4787985301103 -116.27701400532874 146.4787985301103 -116.27701400532874 146.4787985301103M-116.27701400532874 111.9289696730309C-116.27701400532874 111.9289696730309 -94.54006729368334 99.46403035002157 -94.54006729368334 99.46403035002157C-93.0361204466822 98.60159983291234 -91.82548763011584 99.30689976919 -91.82548763011584 101.04533208510665C-91.82548763011584 101.04533208510665 -91.82548763011584 126.14904252495485 -91.82548763011584 126.14904252495485C-91.82548763011584 127.88747365486947 -93.03612044668226 129.9826877668904 -94.54006729368334 130.84692055340423C-94.54006729368334 130.84692055340423 -116.27701400532874 143.3379085589771 -116.27701400532874 143.3379085589771C-117.78363164205209 144.2036760965685 -118.99666594784773 143.4997535331356 -118.99666594784773 141.75951853308794C-118.99666594784773 141.75951853308794 -118.99666594784773 116.62975941480012 -118.99666594784773 116.62975941480012C-118.99666594784773 114.88952322751977 -117.78363164205203 112.79293174065053 -116.27701400532874 111.9289696730309C-116.27701400532874 111.9289696730309 -116.27701400532874 111.9289696730309 -116.27701400532874 111.9289696730309M-116.27701400532874 111.9289696730309C-116.27701400532874 111.9289696730309 -94.54006729368334 99.46403035002157 -94.54006729368334 99.46403035002157C-93.0361204466822 98.60159983291234 -91.82548763011584 99.30689976919 -91.82548763011584 101.04533208510665C-91.82548763011584 101.04533208510665 -91.82548763011584 126.14904252495485 -91.82548763011584 126.14904252495485C-91.82548763011584 127.88747365486947 -93.03612044668226 129.9826877668904 -94.54006729368334 130.84692055340423C-94.54006729368334 130.84692055340423 -116.27701400532874 143.3379085589771 -116.27701400532874 143.3379085589771C-117.78363164205209 144.2036760965685 -118.99666594784773 143.4997535331356 -118.99666594784773 141.75951853308794C-118.99666594784773 141.75951853308794 -118.99666594784773 116.62975941480012 -118.99666594784773 116.62975941480012C-118.99666594784773 114.88952322751977 -117.78363164205203 112.79293174065053 -116.27701400532874 111.9289696730309C-116.27701400532874 111.9289696730309 -116.27701400532874 111.9289696730309 -116.27701400532874 111.9289696730309" />
    <path
       inkscape:connector-curvature="0"
       id="use883-3"
       style="fill:#da3326;fill-opacity:1;stroke:#000000;stroke-width:2.64583325;stroke-miterlimit:4;stroke-dasharray:none"
       d="m 128.62565,200.815 h 21.16667 c 1.46579,0 2.64584,1.18004 2.64584,2.64583 v 21.16666 c 0,1.46579 -1.18005,2.64584 -2.64584,2.64584 h -21.16667 c -1.46579,0 -2.64583,-1.18005 -2.64583,-2.64584 v -21.16666 c 0,-1.46579 1.18004,-2.64583 2.64583,-2.64583 z m 0,-29.10416 h 21.16667 c 1.46579,0 2.64584,1.18004 2.64584,2.64583 v 21.16666 c 0,1.46579 -1.18005,2.64584 -2.64584,2.64584 h -21.16667 c -1.46579,0 -2.64583,-1.18005 -2.64583,-2.64584 v -21.16666 c 0,-1.46579 1.18004,-2.64583 2.64583,-2.64583 z m 0,-29.10417 h 21.16667 c 1.46579,0 2.64584,1.18004 2.64584,2.64584 v 21.16666 c 0,1.46579 -1.18005,2.64584 -2.64584,2.64584 h -21.16667 c -1.46579,0 -2.64583,-1.18005 -2.64583,-2.64584 v -21.16666 c 0,-1.4658 1.18004,-2.64584 2.64583,-2.64584 z M 99.521493,200.815 h 21.166657 c 1.46579,0 2.64584,1.18004 2.64584,2.64583 v 21.16666 c 0,1.46579 -1.18005,2.64584 -2.64584,2.64584 H 99.521493 c -1.46581,0 -2.64584,-1.18005 -2.64584,-2.64584 v -21.16666 c 0,-1.46579 1.18003,-2.64583 2.64584,-2.64583 z m 0,-29.10416 h 21.166657 c 1.46579,0 2.64584,1.18004 2.64584,2.64583 v 21.16666 c 0,1.46579 -1.18005,2.64584 -2.64584,2.64584 H 99.521493 c -1.46581,0 -2.64584,-1.18005 -2.64584,-2.64584 v -21.16666 c 0,-1.46579 1.18003,-2.64583 2.64584,-2.64583 z m 0,-29.10417 h 21.166657 c 1.46579,0 2.64584,1.18004 2.64584,2.64584 v 21.16666 c 0,1.46579 -1.18005,2.64584 -2.64584,2.64584 H 99.521493 c -1.46581,0 -2.64584,-1.18005 -2.64584,-2.64584 v -21.16666 c 0,-1.4658 1.18003,-2.64584 2.64584,-2.64584 z M 70.417313,200.815 h 21.16667 c 1.46579,0 2.64583,1.18004 2.64583,2.64583 v 21.16666 c 0,1.46579 -1.18004,2.64584 -2.64583,2.64584 h -21.16667 c -1.46579,0 -2.64583,-1.18005 -2.64583,-2.64584 v -21.16666 c 0,-1.46579 1.18004,-2.64583 2.64583,-2.64583 z m 0,-29.10416 h 21.16667 c 1.46579,0 2.64583,1.18004 2.64583,2.64583 v 21.16666 c 0,1.46579 -1.18004,2.64584 -2.64583,2.64584 h -21.16667 c -1.46579,0 -2.64583,-1.18005 -2.64583,-2.64584 v -21.16666 c 0,-1.46579 1.18004,-2.64583 2.64583,-2.64583 z m 0,-29.10417 h 21.16667 c 1.46579,0 2.64583,1.18004 2.64583,2.64584 v 21.16666 c 0,1.46579 -1.18004,2.64584 -2.64583,2.64584 h -21.16667 c -1.46579,0 -2.64583,-1.18005 -2.64583,-2.64584 v -21.16666 c 0,-1.4658 1.18004,-2.64584 2.64583,-2.64584 z m 0,0 h 21.16667 c 1.46579,0 2.64583,1.18004 2.64583,2.64584 v 21.16666 c 0,1.46579 -1.18004,2.64584 -2.64583,2.64584 h -21.16667 c -1.46579,0 -2.64583,-1.18005 -2.64583,-2.64584 v -21.16666 c 0,-1.4658 1.18004,-2.64584 2.64583,-2.64584 z" />
    <path
       id="path1094"
       style="fill:none;stroke:#000000;stroke-width:0.26458332px;stroke-linecap:butt;stroke-linejoin:miter;stroke-opacity:1"
       d="m -209.81762,61.402221 88.64213,51.183149 90.279696,52.1287 m -89.460916,51.64932 V 9.760847 m 66.698961,151.142913 c 0.07673,-0.0767 0.161396,-0.15611 0.248708,-0.23548 h -0.06879 c -0.05027,0.0794 -0.111125,0.15875 -0.179918,0.23548 z m 2.910417,-84.738109 -0.132292,0.111125 -0.0291,-0.03439 0.134937,-0.10848 z m -24.532166,-19.920478 -0.296334,-0.05821 0.02646,-0.07408 0.264584,0.140229 z m 37.160728,3.561291 -0.0979,-0.203729 0.05556,-0.01588 0.03969,0.22225 0.0026,-0.0026 z m -19.486562,40.819916 0.402166,0.22754 z m -21.489458,-51.244499 -0.283104,0.423333 c 0.01829,-0.180921 0.12819,-0.33978 0.291042,-0.420687 z m 27.984979,27.106562 -0.314855,0.288396 -0.03439,-0.03175 0.293687,-0.309563 z m -28.503562,19.105565 0.07937,-1.833565 h 0.06879 v 0.574146 c 0,0.193146 0,0.433916 -0.02381,0.653521 -0.02381,0.219604 -0.03969,0.404808 -0.05821,0.608538 z M -209.81763,164.71408 V 61.402222 l 13.22917,-7.641167 76.23175,-44.000208 v 0 l 75.993625,43.875854 13.467292,7.765521 V 164.71408 l -89.460917,51.64931 z M -30.895794,61.402221 -209.81762,164.71407 l 89.46091,51.64932"
       inkscape:connector-curvature="0"
       sodipodi:nodetypes="ccccccccccccccccccccccccccccccccccccccccccsscccccccccccc" />
    <path
       style="stroke:#000000;stroke-width:0.26458332px;stroke-linecap:butt;stroke-linejoin:miter;stroke-opacity:1;fill-opacity:1;fill-rule:nonzero;fill:none"
       d="m -209.81762,164.71407 89.46091,51.64932 0,-103.66563 -89.4505,-51.64427 z"
       id="path1294"
       inkscape:connector-curvature="0" />
    <path
       style="fill:none;stroke:#000000;stroke-width:0.26458332px;stroke-linecap:butt;stroke-linejoin:miter;stroke-opacity:1"
       d="M -120.35671,216.36339 V 112.69776 L -30.895792,61.402221 V 164.71407 Z"
       id="path2916"
       inkscape:connector-curvature="0" />
    <path
       inkscape:connector-curvature="0"
       id="use883-3-6"
       style="fill:#da3326;fill-opacity:1;stroke:#000000;stroke-width:2.64583325;stroke-miterlimit:4;stroke-dasharray:none"
       d="M-155.59529688318065 62.96169325711306C-155.59529688318065 62.96169325711306 -177.2342647919196 75.4260632382632 -177.2342647919196 75.4260632382632C-178.73145765648428 76.28846877792554 -181.14726003547625 76.28848042263989 -182.6511784244926 75.42606884859089C-182.6511784244926 75.42606884859089 -204.38719722555663 62.96169955522494 -204.38719722555663 62.96169955522494C-205.89372572829336 62.097791229557984 -205.90149424526422 60.706589196595665 -204.4043095415787 59.84242662888462C-204.4043095415787 59.84242662888462 -182.7654403978704 47.35265120200582 -182.7654403978704 47.35265120200582C-181.26564439350818 46.48698141324695 -178.84512751508584 46.48698745063477 -177.33859083169253 47.35265740111386C-177.33859083169253 47.35265740111386 -155.60247327384147 59.842432138978836 -155.60247327384147 59.842432138978836C-154.0985493851636 60.70660075338234 -154.09549536321694 62.09778509282534 -155.59529688318065 62.96169325711306C-155.59529688318065 62.96169325711306 -155.59529688318065 62.96169325711306 -155.59529688318065 62.96169325711306M-125.77195784283037 80.09497608474574C-125.77195784283037 80.09497608474574 -147.41098228744804 92.53148950202947 -147.41098228744804 92.53148950202947C-148.9081805207025 93.3919684928388 -151.32130358474834 93.39196837653903 -152.82185208706372 92.53148924065648C-152.82185208706372 92.53148924065648 -174.5092878861355 80.09497953297425 -174.5092878861355 80.09497953297425C-176.0124479815599 79.23300279712862 -176.01749708715758 77.84491153947818 -174.5203035786773 76.98268140760382C-174.5203035786773 76.98268140760382 -152.8813282797069 64.520847703425 -152.8813282797069 64.520847703425C-151.38152638035865 63.657115405538455 -148.96371985425057 63.65712142423124 -147.46055502327155 64.52085387704122C-147.46055502327155 64.52085387704122 -125.7730700867693 76.9826838596415 -125.7730700867693 76.9826838596415C-124.27251951201609 77.84491413657854 -124.27215386404593 79.23299950381497 -125.7719578428304 80.09497608474574C-125.7719578428304 80.09497608474574 -125.77195784283037 80.09497608474574 -125.77195784283037 80.09497608474574M-96.01527113671139 97.18996765022423C-96.01527113671139 97.18996765022423 -117.65429788404627 109.5987177938929 -117.65429788404627 109.5987177938929C-119.15149773036337 110.45727668496576 -121.5619167754583 110.45728243105933 -123.05912710946232 109.5987175446526C-123.05912710946232 109.5987175446526 -144.69814771359003 97.18997119486568 -144.69814771359003 97.18997119486568C-146.19794045403978 96.32992544538557 -146.20029250978268 94.94492867263126 -144.7030939750744 94.08462450153453C-144.7030939750744 94.08462450153453 -123.06406708555369 81.65063885436327 -123.06406708555369 81.65063885436327C-121.56426306984943 80.78883754970903 -119.14915059996392 80.78884942953974 -117.64935654605026 81.6506450025861C-117.64935654605026 81.6506450025861 -96.01033609226529 94.08462684393876 -96.01033609226529 94.08462684393876C-94.5131270901194 94.9449370222646 -94.51546845475612 96.32991618106657 -96.01527113671139 97.18996765022423C-96.01527113671139 97.18996765022423 -96.01527113671139 97.18996765022423 -96.01527113671139 97.18996765022423M-125.78412514448299 45.79001133171622C-125.78412514448299 45.79001133171622 -147.4715958726334 58.282319664123364 -147.4715958726334 58.282319664123364C-148.9721445863368 59.14665822320893 -151.39065281009297 59.14666988883823 -152.89457707844053 58.28232527539937C-152.89457707844053 58.28232527539937 -174.6307020528526 45.79000572575268 -174.6307020528526 45.79000572575268C-176.13723938401958 44.92415931676463 -176.14231115774098 43.529836050112195 -174.64176720067627 42.6637345492698C-174.64176720067627 42.6637345492698 -152.9543459498179 30.145935249665545 -152.9543459498179 30.145935249665545C-151.4511613859996 29.278309612551304 -149.02793838810163 29.278321588124054 -147.52139628941904 30.1459355556122C-147.52139628941904 30.1459355556122 -125.78522184597364 42.66374608568852 -125.78522184597364 42.66374608568852C-124.28129549118798 43.52985365256408 -124.28093848714838 44.9241532775444 -125.78412514448299 45.79001133171622C-125.78412514448299 45.79001133171622 -125.78412514448299 45.79001133171622 -125.78412514448299 45.79001133171622M-95.9607727306312 62.96170815106991C-95.9607727306312 62.96170815106991 -117.64824577740308 75.4260662474094 -117.64824577740308 75.4260662474094C-119.14879611505596 76.28847178030631 -121.56461897604171 76.28847165857258 -123.06516958774165 75.42606597384997C-123.06516958774165 75.42606597384997 -144.7526569788284 62.96169971549771 -144.7526569788284 62.96169971549771C-146.25582211306704 62.09779139628708 -146.25817443737705 60.70658937372329 -144.75762542018603 59.84242681247236C-144.75762542018603 59.84242681247236 -123.07015223061822 47.35266329002451 -123.07015223061822 47.35266329002451C-121.56696553611194 46.48698169676705 -119.1464589738158 46.48699364031225 -117.64329251723377 47.352663583641856C-117.64329251723377 47.352663583641856 -95.9558052771818 59.84243527050296 -95.9558052771818 59.84243527050296C-94.45525600627408 60.70659798290387 -94.45758737885293 62.097788206624095 -95.96077273063123 62.96170815106991C-95.96077273063123 62.96170815106991 -95.9607727306312 62.96170815106991 -95.9607727306312 62.96170815106991M-66.20414722161637 80.09498493756968C-66.20414722161637 80.09498493756968 -87.89156835388339 92.53148650638285 -87.89156835388339 92.53148650638285C-89.39211655983556 93.39196549111742 -91.80522937423511 93.3919712448993 -93.30243807289766 92.53148624500984C-93.30243807289766 92.53148624500984 -114.9414560524856 80.09497662520467 -114.9414560524856 80.09497662520467C-116.44125006744969 79.23300577641561 -116.44090532433351 77.84490864762337 -114.94035502565805 76.98267852184887C-114.94035502565805 76.98267852184887 -93.25288446281068 64.5208566904575 -93.25288446281068 64.5208566904575C-91.74969941632942 63.657112614145014 -89.33189297311826 63.65713041871531 -87.83210105789672 64.52085697179999C-87.83210105789672 64.52085697179999 -66.1931325170958 76.98268685657575 -66.1931325170958 76.98268685657575C-64.6959285635234 77.84492300877746 -64.70096693107472 79.2329966021416 -66.20414722161637 80.09498493756968C-66.20414722161637 80.09498493756968 -66.20414722161637 80.09498493756968 -66.20414722161637 80.09498493756968M-95.9059988207407 28.579762561382513C-95.9059988207407 28.579762561382513 -117.64218704324766 41.10013290103396 -117.64218704324766 41.10013290103396C-119.14610290042724 41.96641098525047 -121.56731277763886 41.96641676221902 -123.071239169623 41.10013260294067C-123.071239169623 41.10013260294067 -144.8074160842561 28.579768677697857 -144.8074160842561 28.579768677697857C-146.31395848824843 27.71197765626502 -146.31633164452725 26.314528561872173 -144.8124171167442 25.446481595624288C-144.8124171167442 25.446481595624288 -123.07622875081414 12.90053432250916 -123.07622875081414 12.90053432250916C-121.56968528706308 12.030969956269912 -119.14372955306533 12.030976031254411 -117.63718581777933 12.900540572898066C-117.63718581777933 12.900540572898066 -95.90100905489085 25.44648141829776 -95.90100905489085 25.44648141829776C-94.39708401273509 26.314534471998357 -94.39945670874198 27.711971715010765 -95.9059988207407 28.579762561382513C-95.9059988207407 28.579762561382513 -95.9059988207407 28.579762561382513 -95.9059988207407 28.579762561382513M-66.08270801614746 45.7900027604152C-66.08270801614746 45.7900027604152 -87.81884397440281 58.28232870498821 -87.81884397440281 58.28232870498821C-89.3227576855434 59.14666725661313 -91.74127613177836 59.14666123301194 -93.24182509716199 58.28232252211373C-93.24182509716199 58.28232252211373 -114.92930984637049 45.79000601449262 -114.92930984637049 45.79000601449262C-116.43247626374229 44.92415961198987 -116.43212995288013 43.52984226421823 -114.92821413493857 42.66374077053227C-114.92821413493857 42.66374077053227 -93.1920284130945 30.14592381819002 -93.1920284130945 30.14592381819002C-91.68548660844785 29.278310025091713 -89.26225341381937 29.27831608124328 -87.75908911034736 30.14593004288874C-87.75908911034736 30.14593004288874 -66.07165413295637 42.66373753419304 -66.07165413295637 42.66373753419304C-64.57110994458898 43.529839187143715 -64.5761709994308 44.924156526451 -66.08270801614746 45.7900027604152C-66.08270801614746 45.7900027604152 -66.08270801614746 45.7900027604152 -66.08270801614746 45.7900027604152M-36.32621868614961 62.96169357765869C-36.32621868614961 62.96169357765869 -58.06224814775287 75.42606925655444 -58.06224814775287 75.42606925655444C-59.566155957237704 76.28847478268597 -61.98195830906266 76.28847466095326 -63.47916161668187 75.42606309910907C-63.47916161668187 75.42606309910907 -85.11812273787648 62.96169692903324 -85.11812273787648 62.96169692903324C-86.61791427168023 62.097794510085755 -86.61487089607787 60.70659249845473 -85.11095756663848 59.84242994399647C-85.11095756663848 59.84242994399647 -63.3748290543386 47.35264880333478 -63.3748290543386 47.35264880333478C-61.868292687432096 46.48697902720781 -59.44776569521656 46.48699097075407 -57.947979697344635 47.35265500244273C-57.947979697344635 47.35265500244273 -36.30911763499189 59.842426610279304 -36.30911763499189 59.842426610279304C-34.81192250863994 60.706595212427565 -34.81969052026632 62.09778542628365 -36.32621868614961 62.96169357765869C-36.32621868614961 62.96169357765869 -36.32621868614961 62.96169357765869 -36.32621868614961 62.96169357765869M-36.32621868614961 62.96169357765869C-36.32621868614961 62.96169357765869 -58.06224814775287 75.42606925655444 -58.06224814775287 75.42606925655444C-59.566155957237704 76.28847478268597 -61.98195830906266 76.28847466095326 -63.47916161668187 75.42606309910907C-63.47916161668187 75.42606309910907 -85.11812273787648 62.96169692903324 -85.11812273787648 62.96169692903324C-86.61791427168023 62.097794510085755 -86.61487089607787 60.70659249845473 -85.11095756663848 59.84242994399647C-85.11095756663848 59.84242994399647 -63.3748290543386 47.35264880333478 -63.3748290543386 47.35264880333478C-61.868292687432096 46.48697902720781 -59.44776569521656 46.48699097075407 -57.947979697344635 47.35265500244273C-57.947979697344635 47.35265500244273 -36.30911763499189 59.842426610279304 -36.30911763499189 59.842426610279304C-34.81192250863994 60.706595212427565 -34.81969052026632 62.09778542628365 -36.32621868614961 62.96169357765869C-36.32621868614961 62.96169357765869 -36.32621868614961 62.96169357765869 -36.32621868614961 62.96169357765869" />
    <path
       inkscape:connector-curvature="0"
       id="path2973"
       d="M -120.35671,9.7608468 -30.895792,61.402221 -120.35671,112.69776 -209.81763,61.402221 Z"
       style="fill:none;stroke:#000000;stroke-width:0.26458332px;stroke-linecap:butt;stroke-linejoin:miter;stroke-opacity:1" />
  </g>
</svg>
